<svg xmlns="http://www.w3.org/2000/svg" width="59" height="38" fill="none" viewBox="0 0 59 38">
  <path fill="#fff" d="M8.84 13.443c-2.673-.86-2.806-4.592-.2-5.64L26.998.422a3 3 0 0 1 2.115-.046L50.6 7.942c2.71.954 2.658 4.805-.078 5.685l-19.635 6.317a3 3 0 0 1-1.838 0L8.84 13.443Z"/>
  <path fill="#fff" d="M16.072 18.701a3 3 0 0 0-3.897 2.863v8.839c0 .991.483 1.927 1.323 2.454 2.96 1.858 8.935 4.977 16.94 4.86 7.83-.116 13.603-3.087 16.474-4.906.79-.5 1.252-1.373 1.287-2.309.113-3.012.226-5.871.34-8.812.08-2.06-1.898-3.582-3.87-2.981l-13.593 4.146a3 3 0 0 1-1.773-.007L16.072 18.7ZM3.746 16.205c.122-1.06-1.277-1.548-1.842-.644L.367 18.024a1 1 0 0 0 .055 1.139l1.093 1.423c.547.713 1.684.398 1.786-.495l.445-3.886Z"/>
</svg>
