<svg xmlns="http://www.w3.org/2000/svg" width="824" height="360" fill="none" viewBox="0 0 824 360">
  <g clip-path="url(#a)">
    <path fill="#DB4949" d="M70.216 228.89c-12.827.745-25.561 3.634-37.784 7.688-12.223 4.054-24.307 9.412-31.929 19.663-3.439 4.613 11.759 9.785 14.78 8.667 14.593-5.312 27.42-15.144 40.526-23.298 11.479-7.175 26.258-17.566 40.48-16.262l-12.084-9.086c-6.507 13.187-15.523 24.929-21.379 38.488-5.39 12.441-7.761 26.186 6.274 33.409 10.132 5.218 20.728 2.609 30.813-1.305 13.06-5.079 25.329-12.301 37.227-19.57 12.594-7.688 24.91-15.842 37.226-24.043 8.133-5.405 16.173-11.229 25.143-15.237 3.858-1.724 7.901-3.587 12.084-4.38 2.927-.512 3.857.466-1.348-2.376-4.927-2.656-3.811-3.448-3.951-1.118-.278 5.172-1.44 10.018-2.416 15.097-2.556 12.953-3.068 28.423 7.993 37.788 26.677 22.692 54.655-18.684 72.687-33.828l-14.965-7.688c4.044 14.305 5.345 30.054 20.031 37.602 7.668 3.914 16.127 4.287 24.446 2.656 9.945-2.003 17.103-7.082 25.561-12.301 2.974-1.864 7.808-5.358 11.526-4.986 1.069.094.79 0 2.37 1.585 1.58 1.584 3.067 3.448 4.555 5.172 7.25 8.527 15.197 15.19 25.793 19.243 21.936 8.387 45.174 2.33 66.273-5.591 12.688-4.753 25.143-10.158 38.249-13.699 13.106-3.541 26.259-5.125 39.69-5.545 4.09-.14.79-4.659-.511-5.871-2.975-2.702-7.204-4.38-11.201-4.286-21.239.652-41.27 5.125-61.161 12.534-19.891 7.408-40.572 17.845-62.276 16.121-9.76-.792-15.337-4.706-21.472-11.928-6.134-7.222-12.176-13.233-20.913-16.355-18.776-6.663-30.999 12.255-48.148 15.703-3.207.652-7.251.792-9.853.792 1.58 0 1.022 1.677.883.14-.047-.699-1.348-2.377-1.673-3.029-3.161-6.896-4.183-14.771-6.274-22.039-1.116-3.868-10.968-10.997-14.965-7.689-9.249 7.782-17.196 17.008-26.259 24.975-4.833 4.24-9.899 8.341-15.522 11.416-2.185 1.212-4.462 2.33-6.925 2.889-.744.186-2.231.14-2.742.373-.929.373-.279-.326-.325-.047-.093.326 3.997 1.072 3.625 1.724 0 0-2.603-5.125-2.882-6.104-.976-3.261-1.347-6.663-1.347-10.111 0-6.011 1.394-11.835 2.602-17.659.883-4.241 2.37-9.226 1.023-13.466-1.952-6.151-9.621-9.972-15.616-10.624-10.736-1.118-22.401 5.591-31.278 11.136-9.666 6.104-19.054 12.581-28.628 18.825-11.944 7.828-24.028 15.562-36.529 22.552-10.178 5.731-21.147 11.928-32.672 14.491-1.999.419-4.276.745-5.624.745-1.766 0-1.208-.233-.697 0 .186.093 4.926 2.283 4.508 2.656-.372.326-1.069-6.803-1.022-7.409.372-3.634 1.626-7.175 2.974-10.577 5.763-14.817 15.662-27.304 22.633-41.469 2.278-4.613-9.155-8.807-12.083-9.086-15.57-1.445-30.441 7.548-43.175 15.376-14.129 8.76-27.746 19.477-43.361 25.161l14.779 8.667c7.11-9.552 19.612-14.631 30.534-18.219 10.921-3.587 23.423-6.197 35.413-6.942 4.044-.233.884-4.613-.51-5.871-2.882-2.656-7.25-4.52-11.201-4.287v.047Z"/>
    <path fill="#fff" d="M555.864 267.01c15.693-.66 31.32.956 46.88 2.771 15.56 1.815 30.887 3.564 46.314 5.345l-11.005-5.312c1.13 5.774 5.685 8.81 10.672 11.317 5.653 2.838 11.97 5.214 18.386 4.554 14.729-1.485 23.241-16.828 37.504-19.896a28.43 28.43 0 0 1 4.422-.561c.898-.033 1.795.066 2.726.066 3.624 0-1.928 1.221-1.562-.891-.067.396 2.261 3.069 2.56 3.728.864 1.914 1.13 4.059 1.03 6.17-.332 6.929-4.621 13.495-9.043 18.577-10.274 11.812-23.639 21.776-36.872 30.124-15.46 9.766-32.217 17.322-49.739 22.568l11.005 5.313c2.394-14.353 13.732-23.988 26.2-30.356 15.693-8.017 33.514-12.076 50.47-16.563 39.365-10.394 79.429-18.18 119.825-23.361a933.93 933.93 0 0 1 69.189-6.236c1.097-.066-3.258-2.639-3.524-2.771-1.929-.99-4.888-2.805-7.215-2.673a937.6 937.6 0 0 0-123.616 14.848 931.223 931.223 0 0 0-60.012 13.363c-16.99 4.388-34.578 8.447-50.703 15.475-14.596 6.335-29.192 16.431-31.951 33.06-.266 1.584 9.575 5.742 11.005 5.313 30.555-9.14 58.749-25.307 81.723-47.315 8.478-8.15 21.811-24.449 9.941-35.404-9.542-8.776-24.005-10.921-35.276-4.652-7.647 4.256-13.764 10.888-21.777 14.584-3.491 1.617-7.248 2.408-11.105 2.046-.432-.033-2.028-.495-2.327-.363 1.629-.66 3.524 3.332 1.695.165-1.063-1.815-1.928-2.904-2.36-5.049-.499-2.507-8.811-5.081-11.005-5.312-15.427-1.782-30.887-3.563-46.314-5.345-15.427-1.782-31.154-3.431-46.847-2.739-1.064.033 3.259 2.64 3.525 2.772 1.961.99 4.887 2.772 7.214 2.673l-.033-.033Z"/>
    <path fill="#F99898" d="M546.672 130.298c-11.705 2.295-23.234 5.297-34.376 9.605-2.609 1.024-.775 3.108.776 4.309 2.221 1.695 5.888 3.143 8.709 2.578 11.317-2.296 21.929-8.476 32.4-13.173 9.731-4.344 21.648-9.605 31.661-8.405-1.022-.141-.529-.141-.564-.212.247.424 1.058 1.095 1.445 1.695 1.693 2.402 2.398 5.404 2.892 8.264.916 5.545.458 11.16 1.269 16.704.811 5.545 4.16 9.535 9.484 11.76 7.051 2.966 14.314 1.413 21.154-1.307 17.805-7.027 29.792-25.109 40.898-39.764l-12.199-5.086c-1.869 10.595 3.667 17.517 13.821 20.483 10.154 2.966 20.166.777 29.756-1.377 8.391-1.872 17.488-4.803 25.632-5.58 1.798-.177 4.442.494 7.721 1.236 4.161.953 8.286 2.154 12.446 3.072 8.497 1.872 16.994 2.155 25.526.248 19.779-4.415 38.853-13.667 56.34-23.697 2.926-1.695-7.721-8.228-11.212-6.215-14.314 8.193-29.368 15.468-45.093 20.412-7.721 2.401-15.689 4.52-23.798 3.531-6.734-.847-13.257-3.107-19.885-4.485-17.346-3.566-33.741 5.545-50.911 6.957-1.904.142-4.372.248-5.994.071-.916-.106-1.939-.247-1.727-.318.106 0 .917.459.917.459s0 .212-.459-.635c-.352-.671-.599-1.201-.811-1.943-.67-2.33-.423-4.838 0-7.169.705-3.955-9.836-8.228-12.199-5.085-10.118 13.349-20.589 28.782-35.785 36.763-3.455 1.836-7.404 3.284-11.318 3.814-2.573.353-2.15.212.353 1.095 1.869.671.881.777.282-1.06-1.587-4.732-.917-10.312-1.34-15.221-1.057-12.642-7.932-21.718-20.731-24.261-11.352-2.26-22.952 2.296-33.247 6.604-11.811 5.05-23.551 12.396-36.209 14.974l9.52 6.886c11.141-4.308 22.67-7.31 34.375-9.606 2.926-.565.423-3.39-.776-4.308-2.221-1.695-5.852-3.143-8.708-2.578l-.035-.035Z"/>
    <path fill="#fff" d="M344.604 28.89c-18.839 6.37-37.366 13.22-56.526 19.031-19.16 5.812-38.106 10.748-57.632 11.607l10.97 4.645c14.47-9.456 33.221-15.87 50.315-22.638 6.234-2.464 30.929-9.171 21.905-15.632-5.33-3.806-15.403-5.098-23.276-5.042-8.282.083-16.656 1.654-24.834 3.145-8.621 1.577-16.707 2.208-26.043 3.06-11.374 1.038-22.792 2.055-34.192 3.206-24.43 2.463-49.319 8.321-73.758 8.216l10.97 4.646c12.886-8.645 31.803-11.61 47.937-15.655 16.134-4.046 34.968-9.514 44.042-20.772 1.628-2.046-1.219-2.982-3.422-3.73-24.652-8.276-55.052 2.712-80.31 8.591-3.883.896-4.541 2.787-1.421 4.233 3.386 1.575 9.727 2.104 14.049 1.095 10.409-2.414 20.569-5.45 31.036-7.736 5.255-1.132 10.602-2.194 15.994-2.606 4.452-.342 5.782-.272 8.934.788l-3.423-3.73c-8.97 11.107-26.629 15.791-43.02 19.761-16.392 3.97-35.578 7.709-48.955 16.692-4.624 3.099 9.153 4.64 10.97 4.646 20.228.087 40.165-3.586 60.308-6.33s41.769-4.263 62.63-6.254a255.303 255.303 0 0 0 21.64-2.97c3.06-.568 6.161-1.141 9.243-1.549 1.703-.225 3.421-.342 5.131-.514 1.264-.112.735.258-.335-.038 1.243.355 2.384.56 2.364 1.027-.098 1.134-2.756 2.25-4.038 2.857-5.476 2.582-11.586 4.429-17.307 6.715-17.63 7.086-36.691 13.65-51.649 23.471-4.594 3.013 9.083 4.731 10.97 4.646 44.829-2.016 86.151-18.71 126.865-32.51 4.303-1.47.041-3.75-2.188-4.384-3.94-1.092-9.641-1.459-13.944.012Z"/>
  </g>
  <defs>
    <clipPath id="a">
      <path fill="#fff" d="M0 0h824v360H0z"/>
    </clipPath>
  </defs>
</svg>
