<?xml version="1.0" encoding="UTF-8"?><svg id="Vrstva_1" xmlns="http://www.w3.org/2000/svg" viewBox="0 0 512.43 219.86"><defs><style>.cls-1{stroke-dasharray:0 0 6.45 6.45;}.cls-1,.cls-2,.cls-3,.cls-4,.cls-5,.cls-6{fill:none;stroke:#ede8e8;stroke-miterlimit:10;stroke-width:5.81px;}.cls-7{fill:#ede8e8;}.cls-2{stroke-dasharray:0 0 7.55 7.55;}.cls-3{stroke-dasharray:0 0 7.06 7.06;}.cls-5{stroke-dasharray:0 0 3.6 3.6;}.cls-6{stroke-dasharray:0 0 6.81 6.81;}.cls-8{fill:#7c1515;}</style></defs><path class="cls-8" d="M490.83,201.63l-2.86-47.35h24.46s-11.66,47.35-11.66,47.35h-9.95Zm-2.12,18.24v-12.16s14.19,0,14.19,0v12.16s-14.19,0-14.19,0Z"/><g><g><path class="cls-7" d="M42.38,13.67h-8.7c0-4.32-2.51-6.84-7.24-6.84-3.8,0-6.37,1.87-6.37,4.56,0,3.21,2.51,4.27,9.06,5.9,7.83,1.93,14.61,3.97,14.61,13.03,0,7.89-6.54,13.15-16.24,13.15-10.34,0-16.83-5.14-16.83-14.61h8.88c0,5.02,2.75,7.65,8.06,7.65,4.38,0,7.19-2.04,7.19-5.32,0-3.68-2.69-4.38-8.59-5.9-7.83-1.99-14.96-3.86-14.96-12.97C11.24,5.02,17.5,0,26.61,0c10.4,0,15.77,4.73,15.77,13.67Z"/><path class="cls-7" d="M76.85,23.89h-8.53c-.29-3.5-2.4-5.67-5.55-5.67-3.97,0-6.37,3.62-6.37,9.46s2.4,9.46,6.37,9.46c3.15,0,5.26-2.4,5.49-6.25h8.59c-.64,7.54-6.02,12.56-14.02,12.56-9.06,0-14.96-6.19-14.96-15.77s5.9-15.77,14.96-15.77c8,0,13.38,5.02,14.02,11.98Z"/><path class="cls-7" d="M107,23.66v10.75c0,3.74,.29,6.13,.82,8.12h-7.36c-.29-1.23-.41-2.51-.41-3.97h-.12c-2.22,3.15-5.55,4.67-9.64,4.67-6.31,0-10.11-3.86-10.11-9,0-4.85,2.92-8.12,11.51-9.46,2.22-.35,5.55-.7,7.42-.82v-1.05c0-3.74-1.99-5.26-4.85-5.26-3.04,0-4.79,1.69-4.91,4.5h-7.95c.29-5.67,4.38-10.22,12.85-10.22s12.74,3.97,12.74,11.74Zm-7.89,5.26c-1.75,.12-4.21,.35-5.96,.64-3.39,.58-4.79,1.69-4.79,4.09,0,2.22,1.52,3.74,4.38,3.74,1.69,0,3.5-.53,4.67-1.69,1.4-1.4,1.69-2.98,1.69-5.67v-1.11Z"/><path class="cls-7" d="M114.59,42.53V.94h8.18V42.53h-8.18Z"/><path class="cls-7" d="M155.08,23.66v10.75c0,3.74,.29,6.13,.82,8.12h-7.36c-.29-1.23-.41-2.51-.41-3.97h-.12c-2.22,3.15-5.55,4.67-9.64,4.67-6.31,0-10.11-3.86-10.11-9,0-4.85,2.92-8.12,11.51-9.46,2.22-.35,5.55-.7,7.42-.82v-1.05c0-3.74-1.99-5.26-4.85-5.26-3.04,0-4.79,1.69-4.91,4.5h-7.95c.29-5.67,4.38-10.22,12.85-10.22s12.74,3.97,12.74,11.74Zm-7.89,5.26c-1.75,.12-4.21,.35-5.96,.64-3.39,.58-4.79,1.69-4.79,4.09,0,2.22,1.52,3.74,4.38,3.74,1.69,0,3.5-.53,4.67-1.69,1.4-1.4,1.69-2.98,1.69-5.67v-1.11Z"/></g><g><path class="cls-7" d="M383.55,179.77h-8.7c0-4.32-2.51-6.83-7.24-6.83-3.8,0-6.37,1.87-6.37,4.56,0,3.21,2.51,4.27,9.06,5.9,7.83,1.93,14.61,3.97,14.61,13.03,0,7.89-6.54,13.15-16.24,13.15-10.34,0-16.83-5.14-16.83-14.61h8.88c0,5.02,2.75,7.65,8.06,7.65,4.38,0,7.19-2.04,7.19-5.32,0-3.68-2.69-4.38-8.59-5.9-7.83-1.99-14.96-3.86-14.96-12.97,0-7.3,6.25-12.33,15.37-12.33,10.4,0,15.77,4.73,15.77,13.67Z"/><path class="cls-7" d="M418.02,189.99h-8.53c-.29-3.5-2.4-5.67-5.55-5.67-3.97,0-6.37,3.62-6.37,9.46s2.4,9.46,6.37,9.46c3.16,0,5.26-2.4,5.49-6.25h8.59c-.64,7.54-6.02,12.56-14.02,12.56-9.06,0-14.96-6.19-14.96-15.77s5.9-15.77,14.96-15.77c8,0,13.38,5.02,14.02,11.98Z"/><path class="cls-7" d="M448.17,189.76v10.75c0,3.74,.29,6.13,.82,8.12h-7.36c-.29-1.23-.41-2.51-.41-3.97h-.12c-2.22,3.15-5.55,4.67-9.64,4.67-6.31,0-10.11-3.86-10.11-9,0-4.85,2.92-8.12,11.51-9.46,2.22-.35,5.55-.7,7.42-.82v-1.05c0-3.74-1.99-5.26-4.85-5.26-3.04,0-4.79,1.69-4.91,4.5h-7.95c.29-5.67,4.38-10.22,12.85-10.22s12.74,3.97,12.74,11.74Zm-7.89,5.26c-1.75,.12-4.21,.35-5.96,.64-3.39,.58-4.79,1.69-4.79,4.09,0,2.22,1.52,3.74,4.38,3.74,1.69,0,3.5-.53,4.67-1.69,1.4-1.4,1.69-2.98,1.69-5.67v-1.11Z"/><path class="cls-7" d="M455.76,208.63v-41.6h8.18v41.6h-8.18Z"/><path class="cls-7" d="M490.58,199.63h8.35c-1.17,5.43-6.31,9.93-14.2,9.93-9.35,0-14.78-6.54-14.78-16.01,0-8.76,5.43-15.54,14.72-15.54,6.84,0,11.86,3.86,13.73,9.87,.64,2.04,.93,4.32,.93,7.59h-21.32c.23,6.13,3.21,8.3,6.72,8.3,3.27,0,5.43-1.75,5.84-4.15Zm-12.39-9.29h12.97c-.53-4.5-3.21-6.54-6.49-6.54s-5.84,2.04-6.48,6.54Z"/></g><g><path class="cls-7" d="M222.66,127.32l-9.99-29.68h8.53l3.45,11.68c1.23,4.21,2.34,8.53,3.27,12.85h.12c.93-4.32,2.04-8.65,3.27-12.85l3.45-11.68h8.53l-9.99,29.68h-10.63Z"/><path class="cls-7" d="M265.19,118.32h8.35c-1.17,5.43-6.31,9.93-14.2,9.93-9.35,0-14.78-6.54-14.78-16.01,0-8.76,5.43-15.54,14.72-15.54,6.84,0,11.86,3.86,13.73,9.87,.64,2.04,.93,4.32,.93,7.59h-21.32c.23,6.13,3.21,8.3,6.72,8.3,3.27,0,5.43-1.75,5.84-4.15Zm-12.39-9.29h12.97c-.53-4.5-3.21-6.54-6.49-6.54s-5.84,2.04-6.48,6.54Z"/></g><polyline class="cls-8" points="0 61.02 167.89 61.02 167.89 145.37 317.53 145.37 317.31 189.74 345.6 189.74"/><g><line class="cls-4" x1="334.75" y1="189.74" x2="331.43" y2="189.74"/><line class="cls-5" x1="327.83" y1="189.74" x2="322.43" y2="189.74"/><polyline class="cls-4" points="320.63 189.74 317.31 189.74 317.33 186.42"/><line class="cls-2" x1="317.36" y1="178.88" x2="317.49" y2="152.47"/><polyline class="cls-4" points="317.51 148.69 317.53 145.37 314.2 145.37"/><line class="cls-6" x1="307.4" y1="145.37" x2="174.62" y2="145.37"/><polyline class="cls-4" points="171.21 145.37 167.89 145.37 167.89 142.05"/><line class="cls-3" x1="167.89" y1="134.99" x2="167.89" y2="67.87"/><polyline class="cls-4" points="167.89 64.34 167.89 61.02 164.57 61.02"/><line class="cls-1" x1="158.12" y1="61.02" x2="6.55" y2="61.02"/><line class="cls-4" x1="3.32" y1="61.02" x2="0" y2="61.02"/><polygon class="cls-7" points="332.55 182.21 345.6 189.74 332.55 197.28 332.55 182.21"/></g></g></svg>