<?xml version="1.0" encoding="UTF-8"?>
<svg id="Vrstva_1" data-name="Vrstva 1" xmlns="http://www.w3.org/2000/svg" viewBox="0 0 325.34 362.75">
  <defs>
    <style>
      .logo-class-1 {
        fill: #ede8e8;
      }

      .logo-class-2 {
        stroke-dasharray: 0 0 6.15 6.15;
      }

      .logo-class-2, .logo-class-3, .logo-class-4, .logo-class-5, .logo-class-6 {
        fill: none;
        stroke: #ede8e8;
        stroke-miterlimit: 10;
        stroke-width: 5.76px;
      }

      .logo-class-3 {
        stroke-dasharray: 0 0 6.8 6.8;
      }

      .logo-class-4 {
        stroke-dasharray: 0 0 6.5 6.5;
      }

      .logo-class-5 {
        stroke-dasharray: 0 0 5.64 5.64;
      }

      .logo-class-7 {
        fill: #7c1515;
      }
    </style>
  </defs>
  <g>
    <polyline class="logo-class-7" points="0 128.1 160.59 128.1 160.59 214.58 306.08 214.58 305.88 260.07 306.08 252.79"/>
    <g>
      <line class="logo-class-6" x1="305.93" y1="249.33" x2="305.94" y2="246.04"/>
      <line class="logo-class-5" x1="305.97" y1="240.4" x2="306.06" y2="220.68"/>
      <polyline class="logo-class-6" points="306.07 217.86 306.08 214.58 302.8 214.58"/>
      <line class="logo-class-4" x1="296.29" y1="214.58" x2="169.5" y2="214.58"/>
      <polyline class="logo-class-6" points="166.25 214.58 162.96 214.58 162.96 211.29"/>
      <line class="logo-class-2" x1="162.96" y1="205.14" x2="162.96" y2="134.46"/>
      <polyline class="logo-class-6" points="162.96 131.38 162.96 128.1 159.67 128.1"/>
      <line class="logo-class-3" x1="152.87" y1="128.1" x2="6.69" y2="128.1"/>
      <line class="logo-class-6" x1="3.29" y1="128.1" y2="128.1"/>
      <polygon class="logo-class-1" points="313.4 247.18 305.88 260.07 298.48 247.11 313.4 247.18"/>
    </g>
  </g>
  <path class="logo-class-1" d="M121.12,188.66l-11.72-34.81h10c2.53,8.61,6.09,20.07,7.88,28.78h.14c1.78-8.67,5.37-20.21,7.88-28.78h10l-11.72,34.81h-12.47Z"/>
  <path class="logo-class-1" d="M201.26,178.11h9.8c-4.66,18.28-35.68,14.33-33.98-7.13-.15-25.62,36.97-23.39,34.46,2.26h-25.01c-.55,11.22,12.42,12.76,14.73,4.86Zm-14.52-10.89h15.21c-.95-10.3-14.19-10.3-15.21,0Z"/>
  <g>
    <path class="logo-class-7" d="M298.17,339.81l-3.59-59.55h30.77s-14.66,59.55-14.66,59.55h-12.51Zm-2.66,22.94v-15.29s17.84,0,17.84,0v15.29s-17.84,0-17.84,0Z"/>
    <g>
      <path class="logo-class-1" d="M74.51,297.88h-17.38c0-8.63-5.01-13.64-14.46-13.64-7.58,0-12.71,3.73-12.71,9.1,0,6.41,5.01,8.51,18.08,11.78,15.63,3.85,29.16,7.93,29.16,26.01,0,15.74-13.06,26.24-32.42,26.24-20.64,0-33.59-10.26-33.59-29.16H28.91c0,10.03,5.48,15.28,16.09,15.28,8.75,0,14.35-4.08,14.35-10.61,0-7.35-5.37-8.75-17.14-11.78-15.63-3.97-29.86-7.7-29.86-25.89,0-14.58,12.48-24.61,30.67-24.61,20.76,0,31.49,9.45,31.49,27.29Z"/>
      <path class="logo-class-1" d="M143.31,318.29h-17.03c-.58-7-4.78-11.31-11.08-11.31-7.93,0-12.71,7.23-12.71,18.89s4.78,18.89,12.71,18.89c6.3,0,10.5-4.78,10.96-12.48h17.14c-1.28,15.04-12.01,25.07-27.99,25.07-18.08,0-29.86-12.36-29.86-31.49s11.78-31.49,29.86-31.49c15.98,0,26.71,10.03,27.99,23.91Z"/>
      <path class="logo-class-1" d="M203.48,317.82v21.46c0,7.46,.58,12.25,1.63,16.21h-14.69c-.59-2.45-.82-5.02-.82-7.93h-.23c-4.43,6.3-11.08,9.33-19.24,9.33-12.59,0-20.18-7.7-20.18-17.96,0-9.68,5.83-16.21,22.97-18.89,4.43-.7,11.08-1.4,14.81-1.63v-2.1c0-7.46-3.97-10.5-9.68-10.5-6.06,0-9.56,3.38-9.8,8.98h-15.86c.59-11.31,8.75-20.41,25.66-20.41s25.42,7.93,25.42,23.44Zm-15.74,10.5c-3.5,.23-8.4,.7-11.9,1.28-6.76,1.17-9.56,3.38-9.56,8.16,0,4.43,3.03,7.46,8.75,7.46,3.38,0,7-1.05,9.33-3.38,2.8-2.8,3.38-5.95,3.38-11.31v-2.22Z"/>
      <path class="logo-class-1" d="M218.64,355.49v-83.04h16.33v83.04h-16.33Z"/>
      <path class="logo-class-1" d="M288.14,337.53h16.68c-2.33,10.85-12.6,19.83-28.34,19.83-18.66,0-29.51-13.06-29.51-31.96,0-17.49,10.85-31.02,29.39-31.02,13.65,0,23.67,7.7,27.41,19.71,1.28,4.08,1.87,8.63,1.87,15.16h-42.57c.47,12.24,6.42,16.56,13.41,16.56,6.53,0,10.85-3.5,11.66-8.28Zm-24.73-18.54h25.89c-1.05-8.98-6.41-13.06-12.94-13.06s-11.66,4.08-12.95,13.06Z"/>
    </g>
  </g>
  <g>
    <path class="logo-class-1" d="M71.05,27.41h-17.45c0-8.67-5.04-13.71-14.53-13.71-7.61,0-12.77,3.75-12.77,9.14,0,6.44,5.04,8.55,18.15,11.83,15.7,3.87,29.28,7.96,29.28,26.12,0,15.81-13.12,26.36-32.56,26.36-20.73,0-33.73-10.31-33.73-29.28H25.25c0,10.07,5.5,15.34,16.16,15.34,8.79,0,14.41-4.1,14.41-10.66,0-7.38-5.39-8.78-17.22-11.83-15.7-3.98-29.99-7.73-29.99-26C8.61,10.07,21.15,0,39.42,0c20.85,0,31.63,9.49,31.63,27.41Z"/>
    <path class="logo-class-1" d="M140.16,47.91h-17.1c-.59-7.03-4.8-11.36-11.13-11.36-7.97,0-12.77,7.26-12.77,18.98s4.8,18.97,12.77,18.97c6.33,0,10.54-4.8,11.01-12.53h17.22c-1.29,15.11-12.06,25.18-28.11,25.18-18.16,0-29.99-12.42-29.99-31.63s11.83-31.63,29.99-31.63c16.05,0,26.82,10.07,28.11,24.01Z"/>
    <path class="logo-class-1" d="M200.6,47.44v21.55c0,7.5,.59,12.3,1.64,16.28h-14.76c-.59-2.46-.82-5.04-.82-7.96h-.23c-4.45,6.32-11.13,9.37-19.33,9.37-12.65,0-20.26-7.73-20.26-18.04,0-9.72,5.86-16.28,23.08-18.98,4.45-.7,11.13-1.41,14.87-1.64v-2.11c0-7.5-3.98-10.54-9.72-10.54-6.09,0-9.61,3.4-9.84,9.02h-15.93c.59-11.36,8.78-20.5,25.77-20.5s25.53,7.97,25.53,23.54Zm-15.81,10.54c-3.51,.23-8.43,.7-11.95,1.29-6.79,1.17-9.6,3.4-9.6,8.2,0,4.45,3.04,7.5,8.78,7.5,3.4,0,7.03-1.05,9.37-3.4,2.81-2.81,3.4-5.97,3.4-11.36v-2.23Z"/>
    <path class="logo-class-1" d="M215.83,85.27V1.87h16.4V85.27h-16.4Z"/>
    <path class="logo-class-1" d="M297,47.44v21.55c0,7.5,.59,12.3,1.64,16.28h-14.76c-.59-2.46-.82-5.04-.82-7.96h-.23c-4.45,6.32-11.13,9.37-19.33,9.37-12.65,0-20.26-7.73-20.26-18.04,0-9.72,5.86-16.28,23.08-18.98,4.45-.7,11.13-1.41,14.87-1.64v-2.11c0-7.5-3.98-10.54-9.72-10.54-6.09,0-9.61,3.4-9.84,9.02h-15.93c.59-11.36,8.78-20.5,25.77-20.5s25.53,7.97,25.53,23.54Zm-15.81,10.54c-3.51,.23-8.43,.7-11.95,1.29-6.79,1.17-9.61,3.4-9.61,8.2,0,4.45,3.04,7.5,8.78,7.5,3.4,0,7.03-1.05,9.37-3.4,2.81-2.81,3.4-5.97,3.4-11.36v-2.23Z"/>
  </g>
</svg>