<?xml version="1.0" encoding="UTF-8" standalone="no"?>
<svg
   xmlns:dc="http://purl.org/dc/elements/1.1/"
   xmlns:cc="http://creativecommons.org/ns#"
   xmlns:rdf="http://www.w3.org/1999/02/22-rdf-syntax-ns#"
   xmlns:svg="http://www.w3.org/2000/svg"
   xmlns="http://www.w3.org/2000/svg"
   xmlns:sodipodi="http://sodipodi.sourceforge.net/DTD/sodipodi-0.dtd"
   xmlns:inkscape="http://www.inkscape.org/namespaces/inkscape"
   width="128.1642mm"
   height="70.59549mm"
   viewBox="0 0 128.1642 70.59549"
   version="1.1"
   id="svg8"
   inkscape:version="1.0.2 (e86c870879, 2021-01-15, custom)"
   sodipodi:docname="esa.svg">
  <defs
     id="defs2" />
  <sodipodi:namedview
     id="base"
     pagecolor="#ffffff"
     bordercolor="#666666"
     borderopacity="1.0"
     inkscape:pageopacity="0.0"
     inkscape:pageshadow="2"
     inkscape:zoom="1.2128403"
     inkscape:cx="169.49242"
     inkscape:cy="54.314118"
     inkscape:document-units="mm"
     inkscape:current-layer="layer1"
     inkscape:document-rotation="0"
     showgrid="false"
     fit-margin-top="0"
     fit-margin-left="0"
     fit-margin-right="0"
     fit-margin-bottom="0"
     inkscape:window-width="1672"
     inkscape:window-height="977"
     inkscape:window-x="2592"
     inkscape:window-y="286"
     inkscape:window-maximized="0" />
  <metadata
     id="metadata5">
    <rdf:RDF>
      <cc:Work
         rdf:about="">
        <dc:format>image/svg+xml</dc:format>
        <dc:type
           rdf:resource="http://purl.org/dc/dcmitype/StillImage" />
        <dc:title></dc:title>
      </cc:Work>
    </rdf:RDF>
  </metadata>
  <g
     inkscape:label="Vrstva 1"
     inkscape:groupmode="layer"
     id="layer1"
     transform="translate(-35.703614,-40.473148)">
    <path
       d="m 92.296506,105.74226 v -0.81323 h 3.897807 v 0.81323 z m 70.412684,-7.141108 0.5969,0.433282 H 35.703614 l 0.527579,-0.433282 z m -36.0583,-24.2038 c 0,-7.350619 -5.93619,-13.380297 -13.2515,-13.535907 l -7.00169,10.000086 h 6.48819 c 2.10552,0 3.7605,1.655198 3.7605,3.761598 v 2.933524 c 0,2.030095 -1.6558,3.760681 -3.7605,3.760681 H 99.095698 l -6.934905,9.928896 h 20.950587 c 7.44682,0 13.53951,-6.092684 13.53951,-13.53947 z M 49.111286,61.184836 H 79.534488 L 72.644809,71.192048 H 42.119513 Z m 101.489124,29.9448 h 12.154 l -35.2795,-50.648904 -5.95302,8.563504 z M 118.54589,40.473148 H 96.376311 c -7.44601,0 -13.539505,6.093812 -13.539505,13.539505 v 3.309408 c 0,7.446786 6.092684,13.53947 13.539505,13.53947 h 0.941599 l 2.201474,-3.144203 4.790406,-6.859481 h -7.783372 c -2.030907,0 -3.760717,-1.654987 -3.760717,-3.761388 V 54.23843 c 0,-2.106577 1.72981,-3.761598 3.760717,-3.761598 H 111.5593 Z M 54.700486,40.617857 H 79.532583 L 72.64301,50.625951 H 47.708712 Z m 35.375919,40.621372 -46.738009,0.0097 -6.989093,10.008799 46.737093,-0.0096 z m 34.971385,29.829411 c -0.44128,0 -0.8455,-0.0626 -1.21179,-0.18828 -0.36509,-0.1252 -0.69642,-0.31542 -0.9919,-0.56653 v 0 l 0.53089,-0.65267 v 0 c 0.23121,0.20147 0.48662,0.35228 0.7649,0.45289 0.2777,0.10009 0.58102,0.14969 0.9079,0.14969 0.4395,0 0.7806,-0.0819 1.0232,-0.24381 0.2425,-0.1627 0.364,-0.39267 0.364,-0.68968 v -0.004 c 0,-0.23142 -0.0618,-0.40841 -0.18391,-0.52941 -0.1234,-0.12241 -0.28299,-0.21431 -0.4826,-0.274 -0.1996,-0.0599 -0.41737,-0.10788 -0.65528,-0.1487 -0.2256,-0.0387 -0.4535,-0.0896 -0.6864,-0.14241 -0.2335,-0.0536 -0.44651,-0.13448 -0.64209,-0.24568 -0.1954,-0.11119 -0.3531,-0.27252 -0.47251,-0.48232 -0.12002,-0.21099 -0.17988,-0.49388 -0.17988,-0.85079 v -0.004 c 0,-0.56511 0.18806,-1.0045 0.56377,-1.31469 0.37592,-0.3102 0.9077,-0.46511 1.5941,-0.46511 0.32572,0 0.64572,0.0527 0.95631,0.15699 0.31249,0.10502 0.61658,0.26543 0.91211,0.48091 v 0 l -0.48532,0.67669 v 0 c -0.45971,-0.3399 -0.92068,-0.50948 -1.3831,-0.50948 -0.41508,0 -0.73918,0.0831 -0.96869,0.24811 -0.22959,0.16468 -0.3441,0.39899 -0.3441,0.70079 v 0.004 c 0,0.22793 0.0655,0.40262 0.1996,0.52091 0.13419,0.11839 0.3102,0.20719 0.52528,0.2654 0.2153,0.0582 0.44842,0.11352 0.69663,0.16291 0.22218,0.0442 0.44549,0.0978 0.66788,0.15981 0.22391,0.0622 0.42701,0.1542 0.60932,0.27248 0.1826,0.11839 0.32748,0.28071 0.43808,0.48659 0.11042,0.20581 0.1657,0.47441 0.1657,0.80652 v 0.008 c 0,0.55919 -0.19579,0.9924 -0.5854,1.29921 -0.3894,0.30639 -0.93888,0.45929 -1.6467,0.45929 z m 19.32542,-6.13961 h 0.0522 l 2.24184,6.0797 h -0.0519 -0.8684 -0.0521 l -1.65939,-4.82977 -1.65837,4.82977 h -0.0519 -0.86858 -0.0519 l 2.24201,-6.0797 h 0.0522 z m -100.822407,6.13961 c -0.441113,0 -0.845291,-0.0626 -1.211792,-0.18828 -0.365301,-0.1252 -0.696418,-0.31542 -0.991905,-0.56653 v 0 l 0.531107,-0.65267 v 0 c 0.230999,0.20147 0.486481,0.35228 0.764681,0.45289 0.277918,0.10009 0.581025,0.14969 0.907909,0.14969 0.439385,0 0.780803,-0.0819 1.023408,-0.24381 0.242288,-0.1627 0.363785,-0.39267 0.363785,-0.68968 v -0.004 c 0,-0.23142 -0.06181,-0.40841 -0.18408,-0.52941 -0.123225,-0.12241 -0.28261,-0.21431 -0.482423,-0.274 -0.199778,-0.0599 -0.417583,-0.10788 -0.655109,-0.1487 -0.225777,-0.0387 -0.453672,-0.0896 -0.686576,-0.14241 -0.233292,-0.0536 -0.446722,-0.13448 -0.642091,-0.24568 -0.195227,-0.11119 -0.353201,-0.27252 -0.47251,-0.48232 -0.119803,-0.21099 -0.180023,-0.49388 -0.180023,-0.85079 v -0.004 c 0,-0.56511 0.188102,-1.0045 0.563916,-1.31469 0.375884,-0.3102 0.907697,-0.46511 1.593991,-0.46511 0.32572,0 0.645795,0.0527 0.956627,0.15699 0.312279,0.10502 0.616374,0.26543 0.911896,0.48091 v 0 l -0.485317,0.67669 v 0 c -0.459705,-0.3399 -0.920503,-0.50948 -1.383206,-0.50948 -0.414902,0 -0.739105,0.0831 -0.968587,0.24811 -0.229411,0.16468 -0.344099,0.39899 -0.344099,0.70079 v 0.004 c 0,0.22793 0.06551,0.40262 0.199601,0.52091 0.134409,0.11839 0.310092,0.20719 0.525392,0.2654 0.215089,0.0582 0.44831,0.11352 0.696419,0.16291 0.222285,0.0442 0.445699,0.0978 0.667985,0.15981 0.223908,0.0622 0.427213,0.1542 0.609388,0.27248 0.182527,0.11839 0.327625,0.28071 0.43822,0.48659 0.110385,0.20581 0.165206,0.47441 0.165206,0.80652 v 0.008 c 0,0.55919 -0.195615,0.9924 -0.585117,1.29921 -0.389396,0.30639 -0.938812,0.45929 -1.646696,0.45929 z m 3.883484,-3.22609 v -0.002 h 1.943699 c 0.28,0 0.503026,-0.0959 0.672324,-0.28861 0.168593,-0.19198 0.252589,-0.44379 0.252589,-0.7565 0,-0.3181 -0.084,-0.5728 -0.252589,-0.76489 -0.169016,-0.1929 -0.392924,-0.28818 -0.672324,-0.28818 h -2.373171 v -0.81323 h 2.344702 c 0.365689,0 0.685094,0.0779 0.958991,0.2322 0.274602,0.1548 0.487998,0.37292 0.63941,0.65271 0.152294,0.2806 0.228776,0.6078 0.228776,0.98139 0,0.37412 -0.07708,0.70062 -0.228776,0.97942 -0.152012,0.27898 -0.364208,0.49569 -0.63941,0.64929 -0.273508,0.15282 -0.594007,0.2299 -0.958991,0.2299 h -1.501528 v 2.35479 h -0.853475 v -3.16618 z m 6.673532,3.22609 c -0.429507,0 -0.804933,-0.0932 -1.126208,-0.27838 -0.319123,-0.18383 -0.567796,-0.44563 -0.744925,-0.78352 -0.176178,-0.33659 -0.265183,-0.7293 -0.265183,-1.17729 v -1.72141 c 0,-0.448 0.08901,-0.84071 0.265183,-1.17751 0.177129,-0.33778 0.425802,-0.5994 0.744925,-0.78327 0.321275,-0.18531 0.696701,-0.27852 1.126208,-0.27852 0.428272,0 0.803698,0.0932 1.124867,0.27852 0.319017,0.18387 0.569101,0.44549 0.746301,0.78327 0.176319,0.3368 0.26543,0.7299 0.26543,1.17751 v 1.72141 c 0,0.4476 -0.08911,0.8407 -0.26543,1.17729 -0.1772,0.33789 -0.427284,0.59969 -0.746301,0.78352 -0.321169,0.18517 -0.696595,0.27838 -1.124867,0.27838 z m 0,-0.83898 c 0.381176,0 0.687775,-0.12612 0.917787,-0.3768 0.229305,-0.25012 0.344099,-0.58272 0.344099,-0.99342 v -1.78128 c 0,-0.4124 -0.114794,-0.74363 -0.344099,-0.99322 -0.230012,-0.2511 -0.536611,-0.37701 -0.917787,-0.37701 -0.382411,0 -0.688023,0.12591 -0.919021,0.37701 -0.229588,0.24942 -0.343888,0.58121 -0.343888,0.99322 v 1.78128 c 0,0.41049 0.1143,0.74369 0.343888,0.99342 0.230998,0.25068 0.53661,0.3768 0.919021,0.3768 z m 3.887681,-2.5999 v -0.003 h 2.241092 c 0.198296,0 0.357117,-0.0861 0.476708,-0.25851 0.119486,-0.17248 0.179705,-0.39977 0.179705,-0.68358 0,-0.2842 -0.06022,-0.51121 -0.179705,-0.68379 -0.119415,-0.1724 -0.279188,-0.2583 -0.476708,-0.2583 H 57.62399 v -0.81323 h 2.579899 c 0.320922,0 0.60071,0.0735 0.840529,0.2195 0.238971,0.14591 0.425167,0.3502 0.557882,0.61221 0.132186,0.26109 0.198403,0.5697 0.198403,0.92361 0,0.3538 -0.06622,0.66231 -0.198403,0.9235 -0.132715,0.26201 -0.318699,0.4662 -0.557882,0.61189 -0.115606,0.0706 -0.24003,0.12379 -0.374121,0.16052 l 1.385887,2.62848 h -1.011766 l -1.297905,-2.569 h -1.269894 v 2.569 H 57.623108 V 107.6299 H 57.9955 Z m 5.858793,3.37897 v -5.26647 h -1.719298 v -0.81323 h 4.289989 v 0.81323 h -1.718275 v 5.26647 z m 9.803623,0.0599 c -0.440901,0 -0.845114,-0.0626 -1.211403,-0.18828 -0.365513,-0.1252 -0.696807,-0.31542 -0.991906,-0.56653 v 0 l 0.530508,-0.65267 v 0 c 0.231387,0.20147 0.486692,0.35228 0.76528,0.45289 0.277919,0.10009 0.580602,0.14969 0.907521,0.14969 0.439597,0 0.781191,-0.0819 1.023373,-0.24381 0.2425,-0.1627 0.363996,-0.39267 0.363996,-0.68968 v -0.004 c 0,-0.23142 -0.06177,-0.40841 -0.184079,-0.52941 -0.123014,-0.12241 -0.282822,-0.21431 -0.482212,-0.274 -0.199778,-0.0599 -0.417795,-0.10788 -0.655285,-0.1487 -0.225813,-0.0387 -0.453919,-0.0896 -0.686611,-0.14241 -0.233504,-0.0536 -0.446687,-0.13448 -0.642303,-0.24568 -0.195403,-0.11119 -0.352883,-0.27252 -0.472298,-0.48232 -0.119804,-0.21099 -0.179705,-0.49388 -0.179705,-0.85079 v -0.004 c 0,-0.56511 0.187995,-1.0045 0.563597,-1.31469 0.376097,-0.3102 0.907909,-0.46511 1.594521,-0.46511 0.324978,0 0.645301,0.0527 0.955886,0.15699 0.312702,0.10502 0.61662,0.26543 0.911895,0.48091 v 0 l -0.485104,0.67669 v 0 c -0.459493,-0.3399 -0.92068,-0.50948 -1.382677,-0.50948 -0.41582,0 -0.739599,0.0831 -0.969293,0.24811 -0.229199,0.16468 -0.344099,0.39899 -0.344099,0.70079 v 0.004 c 0,0.22793 0.06569,0.40262 0.19999,0.52091 0.133985,0.11839 0.309703,0.20719 0.524792,0.2654 0.215618,0.0582 0.448486,0.11352 0.696912,0.16291 0.222391,0.0442 0.4457,0.0978 0.667879,0.15981 0.22412,0.0622 0.427002,0.1542 0.609212,0.27248 0.182704,0.11839 0.327801,0.28071 0.438397,0.48659 0.110384,0.20581 0.165488,0.47441 0.165488,0.80652 v 0.008 c 0,0.55919 -0.195686,0.9924 -0.584976,1.29921 -0.389608,0.30639 -0.939412,0.45929 -1.647296,0.45929 z m 4.32749,-0.0599 v -5.26647 h -1.719898 v -0.81323 h 4.290378 v 0.81323 h -1.718381 v 5.26647 z m 5.289303,0.0599 c -0.677898,0 -1.202408,-0.19689 -1.574095,-0.5908 -0.372921,-0.39458 -0.558023,-0.95201 -0.558023,-1.6697 v -3.87911 h 0.851817 v 3.90882 c 0,0.4422 0.1131,0.785 0.335491,1.02778 0.222497,0.24232 0.537916,0.36403 0.94481,0.36403 0.409504,0 0.726193,-0.12213 0.950701,-0.36403 0.224507,-0.24278 0.336585,-0.58519 0.336585,-1.02778 v -3.90882 h 0.853722 v 3.87911 c 0,0.7173 -0.187501,1.27459 -0.561128,1.6697 -0.372181,0.3937 -0.899372,0.5908 -1.57988,0.5908 z m 4.415896,-0.87341 h 1.099996 c 0.448486,0 0.796784,-0.11617 1.042211,-0.34809 0.246098,-0.23269 0.370981,-0.56109 0.370981,-0.98499 v -1.78699 c 0,-0.42372 -0.124883,-0.7523 -0.370981,-0.98503 -0.245427,-0.23177 -0.594607,-0.34787 -1.042211,-0.34787 h -1.099996 z m -0.839788,-5.25318 v -0.013 h 1.91449 c 0.736176,0 1.305207,0.1893 1.708397,0.57073 0.402413,0.37987 0.603602,0.91669 0.603602,1.60708 v 1.72391 c 0,0.69011 -0.202706,1.2263 -0.606495,1.6068 -0.403825,0.38139 -0.974125,0.57118 -1.709702,0.57118 H 87.690605 86.850817 86.8372 v -6.06668 z m 10.724691,6.06668 v -6.0797 h 0.773501 l 2.973101,4.66111 -0.0999,0.10831 v -4.76942 h 0.8449 v 6.0797 H 101.285 l -2.964284,-4.58999 0.09969,-0.1101 v 4.70009 z m 6.879202,0 v -5.26647 h -1.7199 v -0.81323 h 4.2902 v 0.81323 h -1.71852 v 5.26647 z m 7.38999,0 2.24229,-6.0797 h 0.7264 l 2.2423,6.0797 h -0.92068 l -1.68561,-4.90537 -1.68399,4.90537 z m 7.95849,0.0599 c -0.44129,0 -0.84557,-0.0626 -1.2119,-0.18828 -0.36498,-0.1252 -0.69638,-0.31542 -0.9919,-0.56653 l 0.53093,-0.65267 c 0.23128,0.20147 0.48658,0.35228 0.76489,0.45289 0.27771,0.10009 0.58099,0.14969 0.90798,0.14969 0.43942,0 0.78063,-0.0819 1.02312,-0.24381 0.2425,-0.1627 0.364,-0.39267 0.364,-0.68968 v -0.004 c 0,-0.23142 -0.0618,-0.40841 -0.1839,-0.52941 -0.1233,-0.12241 -0.28289,-0.21431 -0.4825,-0.274 -0.1996,-0.0599 -0.41751,-0.10788 -0.65542,-0.1487 -0.2256,-0.0387 -0.45339,-0.0896 -0.6863,-0.14241 -0.23361,-0.0536 -0.44658,-0.13448 -0.64219,-0.24568 -0.19541,-0.11119 -0.3531,-0.27252 -0.47251,-0.48232 -0.11998,-0.21099 -0.17988,-0.49388 -0.17988,-0.85079 v -0.004 c 0,-0.56511 0.1881,-1.0045 0.5638,-1.31469 0.376,-0.3102 0.9077,-0.46511 1.5941,-0.46511 0.32569,0 0.64569,0.0527 0.95628,0.15699 0.31252,0.10502 0.61662,0.26543 0.9121,0.48091 l -0.48521,0.67669 c -0.45977,-0.3399 -0.92078,-0.50948 -1.38317,-0.50948 -0.41511,0 -0.7391,0.0831 -0.96873,0.24811 -0.22948,0.16468 -0.3441,0.39899 -0.3441,0.70079 v 0.004 c 0,0.22793 0.0656,0.40262 0.19961,0.52091 0.1343,0.11839 0.31019,0.20719 0.52532,0.2654 0.2153,0.0582 0.44838,0.11352 0.69659,0.16291 0.22222,0.0442 0.44549,0.0978 0.66792,0.15981 0.22387,0.0622 0.42707,0.1542 0.60928,0.27248 0.1826,0.11839 0.32748,0.28071 0.43811,0.48659 0.11039,0.20581 0.1657,0.47441 0.1657,0.80652 v 0.008 c 0,0.55919 -0.19582,0.9924 -0.5854,1.29921 -0.38932,0.30639 -0.93891,0.45929 -1.64662,0.45929 z m -2.2038,-0.75481 z m 0.53093,-0.65267 z m 3.78357,-4.15452 z m -0.48521,0.67669 z m 14.89622,4.88531 c -0.4239,0 -0.79481,-0.0953 -1.11171,-0.28268 -0.3175,-0.18772 -0.5655,-0.45121 -0.7408,-0.79072 -0.17529,-0.33948 -0.26267,-0.73639 -0.26267,-1.19168 v -1.66702 c 0,-0.4566 0.0872,-0.85471 0.26267,-1.19419 0.17551,-0.33979 0.4233,-0.60321 0.7408,-0.79089 0.3169,-0.18722 0.68781,-0.28272 1.11171,-0.28272 0.3513,0 0.67271,0.0751 0.96351,0.2255 0.29129,0.15039 0.53509,0.36149 0.73198,0.63232 0.19642,0.26977 0.32942,0.58667 0.3998,0.94897 v 0 h -0.8751 v 0 c -0.053,-0.19558 -0.1409,-0.36759 -0.2655,-0.51368 -0.1234,-0.14559 -0.26959,-0.25982 -0.43628,-0.34099 -0.16711,-0.0815 -0.3399,-0.1215 -0.51841,-0.1215 -0.3738,0 -0.67289,0.1324 -0.90022,0.39539 -0.22807,0.26328 -0.34138,0.61119 -0.34138,1.04179 v 1.66839 c 0,0.4306 0.11289,0.77812 0.34138,1.0408 0.2262,0.2607 0.52642,0.3925 0.90022,0.3925 0.2643,0 0.51439,-0.0769 0.74789,-0.23019 0.23421,-0.15331 0.3925,-0.37348 0.4723,-0.66078 v 0 h 0.8751 v 0 c -0.0704,0.34579 -0.20458,0.64699 -0.40259,0.90498 -0.1966,0.25661 -0.4415,0.4578 -0.73071,0.60092 -0.28988,0.14347 -0.61069,0.21548 -0.96199,0.21548 z m 4.16059,-6.13961 v 6.0797 h -0.85347 v -6.0797 z m 7.76531,6.0797 v -5.26647 h -1.71969 v -0.81323 h 4.29021 v 0.81323 h -1.71842 v 5.26647 z m 4.0936,-6.0797 v 6.0797 h -0.85369 v -6.0797 z m 7.03171,6.0797 v -6.0797 h 0.77339 l 2.97328,4.66111 -0.10029,0.10831 v -4.76942 h 0.84532 v 6.0797 h -0.78232 l -2.96418,-4.58999 0.0999,-0.1101 v 4.70009 z m -28.55751,0.0599 c -0.4295,0 -0.80511,-0.0932 -1.12571,-0.27838 -0.31958,-0.18383 -0.56818,-0.44563 -0.74521,-0.78352 -0.17656,-0.33659 -0.26578,-0.7293 -0.26578,-1.17729 v -1.72141 c 0,-0.448 0.0892,-0.84071 0.26578,-1.17751 0.17703,-0.33778 0.42563,-0.5994 0.74521,-0.78327 0.3206,-0.18531 0.69621,-0.27852 1.12571,-0.27852 0.4281,0 0.80391,0.0932 1.1248,0.27852 0.31941,0.18387 0.56938,0.44549 0.74641,0.78327 0.1766,0.3368 0.26539,0.7299 0.26539,1.17751 v 1.72141 c 0,0.4476 -0.0888,0.8407 -0.26539,1.17729 -0.17703,0.33789 -0.427,0.59969 -0.74641,0.78352 -0.32089,0.18517 -0.6967,0.27838 -1.1248,0.27838 z m 0,-0.83898 c 0.381,0 0.68789,-0.12612 0.91779,-0.3768 0.22941,-0.25012 0.34392,-0.58272 0.34392,-0.99342 v -1.78128 c 0,-0.4124 -0.11451,-0.74363 -0.34392,-0.99322 -0.2299,-0.2511 -0.53679,-0.37701 -0.91779,-0.37701 -0.38241,0 -0.68841,0.12591 -0.91902,0.37701 -0.2298,0.24942 -0.34388,0.58121 -0.34388,0.99322 v 1.78128 c 0,0.41049 0.11408,0.74369 0.34388,0.99342 0.23061,0.25068 0.53661,0.3768 0.91902,0.3768 z m 25.04222,0.83898 c -0.42962,0 -0.80494,-0.0932 -1.12603,-0.27838 -0.31937,-0.18383 -0.56798,-0.44563 -0.74518,-0.78352 -0.17642,-0.33659 -0.26543,-0.7293 -0.26543,-1.17729 v -1.72141 c 0,-0.448 0.089,-0.84071 0.26543,-1.17751 0.1772,-0.33778 0.42581,-0.5994 0.74518,-0.78327 0.32109,-0.18531 0.69641,-0.27852 1.12603,-0.27852 0.42827,0 0.80359,0.0932 1.12486,0.27852 0.31923,0.18387 0.56903,0.44549 0.74623,0.78327 0.1766,0.3368 0.26558,0.7299 0.26558,1.17751 v 1.72141 c 0,0.4476 -0.089,0.8407 -0.26558,1.17729 -0.1772,0.33789 -0.427,0.59969 -0.74623,0.78352 -0.32127,0.18517 -0.69659,0.27838 -1.12486,0.27838 z m 0,-0.83898 c 0.38138,0 0.68798,-0.12612 0.91768,-0.3768 0.22941,-0.25012 0.3442,-0.58272 0.3442,-0.99342 v -1.78128 c 0,-0.4124 -0.11479,-0.74363 -0.3442,-0.99322 -0.2297,-0.2511 -0.5363,-0.37701 -0.91768,-0.37701 -0.38231,0 -0.68781,0.12591 -0.91913,0.37701 -0.22969,0.24942 -0.3441,0.58121 -0.3441,0.99322 v 1.78128 c 0,0.41049 0.11441,0.74369 0.3441,0.99342 0.23132,0.25068 0.53682,0.3768 0.91913,0.3768 z M 36.294411,105.74223 V 104.929 h 3.897807 v 0.81323 z m 0,5.25328 V 110.182 h 3.897807 v 0.81351 z m 0,-2.60191 v -0.8133 h 3.897807 v 0.8133 z m 56.002095,2.60191 V 110.182 h 3.897807 v 0.81351 z m 0,-2.60191 v -0.8133 h 3.897807 v 0.8133 z"
       style="fill:#000000;fill-opacity:1;fill-rule:nonzero;stroke:none;stroke-width:0.352778"
       id="path20" />
  </g>
</svg>
