<?xml version="1.0" encoding="UTF-8" standalone="no"?>
<svg
   xmlns:dc="http://purl.org/dc/elements/1.1/"
   xmlns:cc="http://creativecommons.org/ns#"
   xmlns:rdf="http://www.w3.org/1999/02/22-rdf-syntax-ns#"
   xmlns:svg="http://www.w3.org/2000/svg"
   xmlns="http://www.w3.org/2000/svg"
   xmlns:sodipodi="http://sodipodi.sourceforge.net/DTD/sodipodi-0.dtd"
   xmlns:inkscape="http://www.inkscape.org/namespaces/inkscape"
   version="1.1"
   viewBox="0 0 1597.297 359.07642"
   xml:space="preserve"
   id="svg221"
   sodipodi:docname="imageclean.svg"
   inkscape:version="1.0.2 (e86c870879, 2021-01-15, custom)"
   width="1597.297"
   height="359.07642"><metadata
   id="metadata225"><rdf:RDF><cc:Work
       rdf:about=""><dc:format>image/svg+xml</dc:format><dc:type
         rdf:resource="http://purl.org/dc/dcmitype/StillImage" /><dc:title></dc:title></cc:Work></rdf:RDF></metadata><sodipodi:namedview
   pagecolor="#ffffff"
   bordercolor="#666666"
   borderopacity="1"
   objecttolerance="10"
   gridtolerance="10"
   guidetolerance="10"
   inkscape:pageopacity="0"
   inkscape:pageshadow="2"
   inkscape:window-width="1920"
   inkscape:window-height="1001"
   id="namedview223"
   showgrid="false"
   inkscape:zoom="0.8625"
   inkscape:cx="447.58256"
   inkscape:cy="366.84866"
   inkscape:window-x="2391"
   inkscape:window-y="969"
   inkscape:window-maximized="1"
   inkscape:current-layer="svg221"
   inkscape:document-rotation="0"
   fit-margin-top="0"
   fit-margin-left="0"
   fit-margin-right="0"
   fit-margin-bottom="0" />
<desc
   id="desc2">Created with Fabric.js 3.6.3</desc>
<defs
   id="defs4">



		
		
		
		
		
		
		
		
		
		
		
		
		
		
		
		
		
		
		
		
		
		
		
		
		
		
		
		
		
		
		
		
		
		
		
		
		
</defs>
<g
   transform="matrix(1.33,0,0,-1.33,61.09355,70.70859)"
   id="path975"
   clip-path="url(#CLIPPATH_34)"
   style="fill:#e62b1e;fill-opacity:1">
<clipPath
   id="CLIPPATH_34">
	<path
   transform="translate(-125.27,-510.13)"
   id="path188"
   d="M 0,792 H 1378.359 V 0 H 0 Z"
   stroke-linecap="round" />
</clipPath>

</g><g
   id="tedx"
   inkscape:label="#tedx"><path
     style="fill:#e62b1e;fill-opacity:1;fill-rule:nonzero;stroke:none;stroke-width:1.33;stroke-linecap:butt;stroke-linejoin:miter;stroke-miterlimit:4;stroke-dasharray:none;stroke-dashoffset:0"
     d="M 39.44115,36.40789 H 0 V 0.33696 H 122.2004 V 36.40789 H 82.77388 V 141.07224 H 39.44115 Z"
     stroke-linecap="round"
     id="path191" /><g
     transform="matrix(1.33,0,0,-1.33,188.56355,70.70859)"
     id="path979"
     clip-path="url(#CLIPPATH_35)"
     style="fill:#e62b1e;fill-opacity:1">
<clipPath
   id="CLIPPATH_35">
	<path
   transform="translate(-220.87,-510.13)"
   id="path194"
   d="M 0,792 H 1378.359 V 0 H 0 Z"
   stroke-linecap="round" />
</clipPath>
<path
   style="opacity:1;fill:#e62b1e;fill-opacity:1;fill-rule:nonzero;stroke:none;stroke-width:1;stroke-linecap:butt;stroke-linejoin:miter;stroke-miterlimit:4;stroke-dasharray:none;stroke-dashoffset:0"
   transform="translate(-44.6,52.91)"
   d="m 0,0 h 89.192 v -27.121 h -56.59 v -13.186 h 56.59 V -65.51 h -56.59 v -13.187 h 56.605 v -27.119 H 0 Z"
   stroke-linecap="round"
   id="path197" />
</g><g
     transform="matrix(1.33,0,0,-1.33,322.82355,70.70859)"
     id="path983"
     clip-path="url(#CLIPPATH_36)"
     style="fill:#e62b1e;fill-opacity:1;stroke-width:1;stroke-miterlimit:4;stroke-dasharray:none">
<clipPath
   id="CLIPPATH_36">
	<path
   transform="translate(-321.56,-510.13)"
   id="path200"
   d="M 0,792 H 1378.359 V 0 H 0 Z"
   stroke-linecap="round" />
</clipPath>
<path
   style="opacity:1;fill:#e62b1e;fill-opacity:1;fill-rule:nonzero;stroke:none;stroke-width:1;stroke-linecap:butt;stroke-linejoin:miter;stroke-miterlimit:4;stroke-dasharray:none;stroke-dashoffset:0"
   transform="translate(-18.01,-25.79)"
   d="m 0,0 h 12.75 c 20.309,0 23.278,16.456 23.278,26.396 0,6.657 -2.086,25.18 -25.652,25.18 H 0 Z m -32.6,78.697 h 53.5 c 35.267,0 47.73,-26.085 47.73,-52.753 0,-32.466 -17.192,-53.064 -54.096,-53.064 H -32.6 Z"
   stroke-linecap="round"
   id="path203" />
</g><g
     transform="matrix(1.33,0,0,-1.33,439.67355,43.38859)"
     id="path987"
     clip-path="url(#CLIPPATH_37)"
     style="fill:#e62b1e;fill-opacity:1">
<clipPath
   id="CLIPPATH_37">
	<path
   transform="translate(-409.21,-530.62)"
   id="path206"
   d="M 0,792 H 1378.359 V 0 H 0 Z"
   stroke-linecap="round" />
</clipPath>
<path
   style="opacity:1;fill:#e62b1e;fill-opacity:1;fill-rule:nonzero;stroke:none;stroke-width:1;stroke-linecap:butt;stroke-linejoin:miter;stroke-miterlimit:4;stroke-dasharray:none;stroke-dashoffset:0"
   transform="translate(9.82,-32.62)"
   d="M 0,0 -9.945,16.492 -19.644,0 H -43.53 l 22.676,33.346 -21.835,31.897 h 23.895 l 8.849,-15.767 9.102,15.767 H 23.045 L 1.216,33.346 23.893,0 Z"
   stroke-linecap="round"
   id="path209" />
</g></g><g
   transform="matrix(1.33,0,0,1.33,801.07355,256.57859)"
   id="textpart"
   inkscape:label="#textpart">
		<text
   xml:space="preserve"
   font-family="Helvetica"
   font-size="146.905px"
   font-style="normal"
   font-weight="normal"
   style="white-space:pre;opacity:1;fill:#000000;fill-rule:nonzero;stroke:none;stroke-width:1;stroke-linecap:butt;stroke-linejoin:miter;stroke-miterlimit:4;stroke-dasharray:none;stroke-dashoffset:0"
   id="text214"><tspan
     x="-599.96002"
     y="46.150002"
     id="tspan212">MasarykUniversity</tspan></text>
</g>
</svg>
