<?xml version="1.0" encoding="UTF-8" standalone="no"?>
<svg
   xmlns:dc="http://purl.org/dc/elements/1.1/"
   xmlns:cc="http://creativecommons.org/ns#"
   xmlns:rdf="http://www.w3.org/1999/02/22-rdf-syntax-ns#"
   xmlns:svg="http://www.w3.org/2000/svg"
   xmlns="http://www.w3.org/2000/svg"
   xmlns:sodipodi="http://sodipodi.sourceforge.net/DTD/sodipodi-0.dtd"
   xmlns:inkscape="http://www.inkscape.org/namespaces/inkscape"
   version="1.1"
   viewBox="0 0 1597.297 411.13666"
   xml:space="preserve"
   id="svg221"
   sodipodi:docname="image.svg"
   inkscape:version="1.0.2 (e86c870879, 2021-01-15, custom)"
   width="1597.297"
   height="411.13666"><metadata
   id="metadata225"><rdf:RDF><cc:Work
       rdf:about=""><dc:format>image/svg+xml</dc:format><dc:type
         rdf:resource="http://purl.org/dc/dcmitype/StillImage" /><dc:title></dc:title></cc:Work></rdf:RDF></metadata><sodipodi:namedview
   pagecolor="#ffffff"
   bordercolor="#666666"
   borderopacity="1"
   objecttolerance="10"
   gridtolerance="10"
   guidetolerance="10"
   inkscape:pageopacity="0"
   inkscape:pageshadow="2"
   inkscape:window-width="1920"
   inkscape:window-height="1001"
   id="namedview223"
   showgrid="false"
   inkscape:zoom="0.8625"
   inkscape:cx="794.52714"
   inkscape:cy="366.84866"
   inkscape:window-x="2391"
   inkscape:window-y="969"
   inkscape:window-maximized="1"
   inkscape:current-layer="svg221"
   inkscape:document-rotation="0"
   fit-margin-top="0"
   fit-margin-left="0"
   fit-margin-right="0"
   fit-margin-bottom="0" />
<desc
   id="desc2">Created with Fabric.js 3.6.3</desc>
<defs
   id="defs4">



		
		
		
		
		
		
		
		
		
		
		
		
		
		
		
		
		
		
		
		
		
		
		
		
		
		
		
		
		
		
		
		
		
		
		
		
		
</defs>
<g
   transform="matrix(1.33,0,0,-1.33,61.09355,70.70859)"
   id="path975"
   clip-path="url(#CLIPPATH_34)"
   style="fill:#e62b1e;fill-opacity:1">
<clipPath
   id="CLIPPATH_34">
	<path
   transform="translate(-125.27,-510.13)"
   id="path188"
   d="M 0,792 H 1378.359 V 0 H 0 Z"
   stroke-linecap="round" />
</clipPath>

</g><g
   id="tedx"
   inkscape:label="#tedx"><g
     transform="matrix(1.33,0,0,-1.33,18.87355,384.21859)"
     id="path847"
     style="fill:#e62b1e;fill-opacity:1">
<path
   style="opacity:1;fill:#e62b1e;fill-opacity:1;fill-rule:nonzero;stroke:none;stroke-width:1;stroke-linecap:butt;stroke-linejoin:miter;stroke-miterlimit:4;stroke-dasharray:none;stroke-dashoffset:0"
   transform="translate(-3.67,0.6)"
   d="m 0,0 -7.567,10.905 h 7.211 L 3.694,4.896 7.7,10.905 h 6.988 L 7.122,0.134 l 8.501,-12.24 h -7.21 l -4.808,7.254 -4.807,-7.254 h -7.077 z"
   stroke-linecap="round"
   id="path6" />
</g><path
     style="fill:#e62b1e;fill-opacity:1;opacity:1;fill-rule:nonzero;stroke:none;stroke-width:1;stroke-linecap:butt;stroke-linejoin:miter;stroke-miterlimit:4;stroke-dasharray:none;stroke-dashoffset:0"
     transform="matrix(1.33,0,0,-1.33,39.44115,36.40789)"
     d="m 0,0 h -29.655 v 27.121 h 91.88 V 0 H 32.581 V -78.695 H 0 Z"
     stroke-linecap="round"
     id="path191" /><g
     transform="matrix(1.33,0,0,-1.33,188.56355,70.70859)"
     id="path979"
     clip-path="url(#CLIPPATH_35)"
     style="fill:#e62b1e;fill-opacity:1">
<clipPath
   id="CLIPPATH_35">
	<path
   transform="translate(-220.87,-510.13)"
   id="path194"
   d="M 0,792 H 1378.359 V 0 H 0 Z"
   stroke-linecap="round" />
</clipPath>
<path
   style="opacity:1;fill:#e62b1e;fill-opacity:1;fill-rule:nonzero;stroke:none;stroke-width:1;stroke-linecap:butt;stroke-linejoin:miter;stroke-miterlimit:4;stroke-dasharray:none;stroke-dashoffset:0"
   transform="translate(-44.6,52.91)"
   d="m 0,0 h 89.192 v -27.121 h -56.59 v -13.186 h 56.59 V -65.51 h -56.59 v -13.187 h 56.605 v -27.119 H 0 Z"
   stroke-linecap="round"
   id="path197" />
</g><g
     transform="matrix(1.33,0,0,-1.33,322.82355,70.70859)"
     id="path983"
     clip-path="url(#CLIPPATH_36)"
     style="fill:#e62b1e;fill-opacity:1;stroke-width:1;stroke-miterlimit:4;stroke-dasharray:none">
<clipPath
   id="CLIPPATH_36">
	<path
   transform="translate(-321.56,-510.13)"
   id="path200"
   d="M 0,792 H 1378.359 V 0 H 0 Z"
   stroke-linecap="round" />
</clipPath>
<path
   style="opacity:1;fill:#e62b1e;fill-opacity:1;fill-rule:nonzero;stroke:none;stroke-width:1;stroke-linecap:butt;stroke-linejoin:miter;stroke-miterlimit:4;stroke-dasharray:none;stroke-dashoffset:0"
   transform="translate(-18.01,-25.79)"
   d="m 0,0 h 12.75 c 20.309,0 23.278,16.456 23.278,26.396 0,6.657 -2.086,25.18 -25.652,25.18 H 0 Z m -32.6,78.697 h 53.5 c 35.267,0 47.73,-26.085 47.73,-52.753 0,-32.466 -17.192,-53.064 -54.096,-53.064 H -32.6 Z"
   stroke-linecap="round"
   id="path203" />
</g><g
     transform="matrix(1.33,0,0,-1.33,439.67355,43.38859)"
     id="path987"
     clip-path="url(#CLIPPATH_37)"
     style="fill:#e62b1e;fill-opacity:1">
<clipPath
   id="CLIPPATH_37">
	<path
   transform="translate(-409.21,-530.62)"
   id="path206"
   d="M 0,792 H 1378.359 V 0 H 0 Z"
   stroke-linecap="round" />
</clipPath>
<path
   style="opacity:1;fill:#e62b1e;fill-opacity:1;fill-rule:nonzero;stroke:none;stroke-width:1;stroke-linecap:butt;stroke-linejoin:miter;stroke-miterlimit:4;stroke-dasharray:none;stroke-dashoffset:0"
   transform="translate(9.82,-32.62)"
   d="M 0,0 -9.945,16.492 -19.644,0 H -43.53 l 22.676,33.346 -21.835,31.897 h 23.895 l 8.849,-15.767 9.102,15.767 H 23.045 L 1.216,33.346 23.893,0 Z"
   stroke-linecap="round"
   id="path209" />
</g></g><g
   id="textpart"
   inkscape:label="#textpart"><g
     transform="matrix(1.33,0,0,-1.33,59.75355,384.56859)"
     id="path849">
<path
   style="opacity:1;fill:#000000;fill-rule:nonzero;stroke:none;stroke-width:1;stroke-linecap:butt;stroke-linejoin:miter;stroke-miterlimit:4;stroke-dasharray:none;stroke-dashoffset:0"
   transform="translate(-124.27,-274.74)"
   d="m 135.507,267.593 h -22.478 v 4.763 h 22.478 z m 0,9.525 h -22.478 v 4.763 h 22.478 z"
   stroke-linecap="round"
   id="path9" />
</g><g
     transform="matrix(1.33,0,0,-1.33,93.49355,378.36859)"
     id="path851">
<path
   style="opacity:1;fill:#000000;fill-rule:nonzero;stroke:none;stroke-width:1;stroke-linecap:butt;stroke-linejoin:miter;stroke-miterlimit:4;stroke-dasharray:none;stroke-dashoffset:0"
   transform="translate(-149.57,-279.39)"
   d="m 146.41,286.51 h 6.32 v -23.012 h -6.32 z m 6.32,3.56 h -6.32 v 5.208 h 6.32 z"
   stroke-linecap="round"
   id="path12" />
</g><g
     transform="matrix(1.33,0,0,-1.33,117.55355,383.79859)"
     id="path863"
     clip-path="url(#CLIPPATH_5)">
<clipPath
   id="CLIPPATH_5">
	<path
   transform="translate(-167.62,-275.32)"
   id="path857"
   d="M 0,792 H 1378.359 V 0 H 0 Z"
   stroke-linecap="round" />
</clipPath>
<path
   style="opacity:1;fill:#000000;fill-rule:nonzero;stroke:none;stroke-width:1;stroke-linecap:butt;stroke-linejoin:miter;stroke-miterlimit:4;stroke-dasharray:none;stroke-dashoffset:0"
   transform="translate(-10.79,11.19)"
   d="m 0,0 h 6.009 v -3.205 h 0.134 c 1.602,2.582 4.361,3.828 7.032,3.828 6.721,0 8.412,-3.783 8.412,-9.48 v -14.155 h -6.32 v 12.997 c 0,3.784 -1.113,5.653 -4.05,5.653 -3.427,0 -4.896,-1.913 -4.896,-6.587 V -23.012 H 0 Z"
   stroke-linecap="round"
   id="path17" />
</g><g
     transform="matrix(1.33,0,0,-1.33,151.47355,378.78859)"
     id="path867"
     clip-path="url(#CLIPPATH_6)">
<clipPath
   id="CLIPPATH_6">
	<path
   transform="translate(-193.05,-279.08)"
   id="path20"
   d="M 0,792 H 1378.359 V 0 H 0 Z"
   stroke-linecap="round" />
</clipPath>
<path
   style="opacity:1;fill:#000000;fill-rule:nonzero;stroke:none;stroke-width:1;stroke-linecap:butt;stroke-linejoin:miter;stroke-miterlimit:4;stroke-dasharray:none;stroke-dashoffset:0"
   transform="translate(0.18,3.29)"
   d="m 0,0 c -4.14,0 -5.564,-3.561 -5.564,-7.345 0,-3.604 1.647,-7.387 5.564,-7.387 4.184,0 5.43,3.649 5.43,7.432 C 5.43,-3.561 4.095,0 0,0 M 5.519,-15.935 H 5.43 c -1.469,-2.492 -4.05,-3.56 -6.988,-3.56 -6.943,0 -10.326,5.965 -10.326,12.329 0,6.187 3.427,11.929 10.193,11.929 2.714,0 5.385,-1.158 6.854,-3.428 H 5.119 5.208 v 11.573 h 6.32 v -31.78 H 5.519 Z"
   stroke-linecap="round"
   id="path23" />
</g><g
     transform="matrix(1.33,0,0,-1.33,186.06355,384.21859)"
     id="path871"
     clip-path="url(#CLIPPATH_7)">
<clipPath
   id="CLIPPATH_7">
	<path
   transform="translate(-219,-275)"
   id="path26"
   d="M 0,792 H 1378.359 V 0 H 0 Z"
   stroke-linecap="round" />
</clipPath>
<path
   style="opacity:1;fill:#000000;fill-rule:nonzero;stroke:none;stroke-width:1;stroke-linecap:butt;stroke-linejoin:miter;stroke-miterlimit:4;stroke-dasharray:none;stroke-dashoffset:0"
   transform="translate(5.12,2.47)"
   d="m 0,0 c -0.579,3.204 -1.958,4.896 -5.03,4.896 -4.006,0 -5.163,-3.117 -5.252,-4.896 z m -10.282,-4.006 c 0.178,-4.006 2.136,-5.831 5.653,-5.831 2.537,0 4.585,1.558 4.985,2.982 H 5.92 C 4.139,-12.285 0.356,-14.6 -4.852,-14.6 c -7.255,0 -11.75,4.985 -11.75,12.107 0,6.899 4.762,12.151 11.75,12.151 7.834,0 11.618,-6.588 11.172,-13.664 z"
   stroke-linecap="round"
   id="path29" />
</g><g
     transform="matrix(1.33,0,0,-1.33,220.72355,389.19859)"
     id="path875"
     clip-path="url(#CLIPPATH_8)">
<clipPath
   id="CLIPPATH_8">
	<path
   transform="translate(-244.99,-271.26)"
   id="path32"
   d="M 0,792 H 1378.359 V 0 H 0 Z"
   stroke-linecap="round" />
</clipPath>
<path
   style="opacity:1;fill:#000000;fill-rule:nonzero;stroke:none;stroke-width:1;stroke-linecap:butt;stroke-linejoin:miter;stroke-miterlimit:4;stroke-dasharray:none;stroke-dashoffset:0"
   transform="translate(5.39,3.67)"
   d="m 0,0 c 0,3.649 -1.469,7.433 -5.519,7.433 -4.139,0 -5.475,-3.695 -5.475,-7.433 0,-3.739 1.425,-7.3 5.519,-7.3 C -1.335,-7.3 0,-3.739 0,0 m -17.092,11.572 h 6.009 V 8.635 h 0.089 c 1.514,2.447 4.006,3.56 6.855,3.56 7.21,0 10.46,-5.831 10.46,-12.373 0,-6.142 -3.383,-11.885 -10.104,-11.885 -2.76,0 -5.386,1.202 -6.899,3.472 h -0.089 V -19.54 h -6.321 z"
   stroke-linecap="round"
   id="path35" />
</g><g
     transform="matrix(1.33,0,0,-1.33,254.00355,384.21859)"
     id="path879"
     clip-path="url(#CLIPPATH_9)">
<clipPath
   id="CLIPPATH_9">
	<path
   transform="translate(-269.96,-275)"
   id="path38"
   d="M 0,792 H 1378.359 V 0 H 0 Z"
   stroke-linecap="round" />
</clipPath>
<path
   style="opacity:1;fill:#000000;fill-rule:nonzero;stroke:none;stroke-width:1;stroke-linecap:butt;stroke-linejoin:miter;stroke-miterlimit:4;stroke-dasharray:none;stroke-dashoffset:0"
   transform="translate(5.12,2.47)"
   d="m 0,0 c -0.579,3.204 -1.958,4.896 -5.03,4.896 -4.006,0 -5.163,-3.117 -5.252,-4.896 z m -10.282,-4.006 c 0.178,-4.006 2.136,-5.831 5.653,-5.831 2.537,0 4.585,1.558 4.985,2.982 H 5.92 C 4.139,-12.285 0.356,-14.6 -4.852,-14.6 c -7.255,0 -11.75,4.985 -11.75,12.107 0,6.899 4.762,12.151 11.75,12.151 7.834,0 11.618,-6.588 11.172,-13.664 z"
   stroke-linecap="round"
   id="path41" />
</g><g
     transform="matrix(1.33,0,0,-1.33,287.45355,383.79859)"
     id="path883"
     clip-path="url(#CLIPPATH_10)">
<clipPath
   id="CLIPPATH_10">
	<path
   transform="translate(-295.04,-275.32)"
   id="path44"
   d="M 0,792 H 1378.359 V 0 H 0 Z"
   stroke-linecap="round" />
</clipPath>
<path
   style="opacity:1;fill:#000000;fill-rule:nonzero;stroke:none;stroke-width:1;stroke-linecap:butt;stroke-linejoin:miter;stroke-miterlimit:4;stroke-dasharray:none;stroke-dashoffset:0"
   transform="translate(-10.79,11.19)"
   d="m 0,0 h 6.009 v -3.205 h 0.134 c 1.602,2.582 4.361,3.828 7.032,3.828 6.721,0 8.412,-3.783 8.412,-9.48 v -14.155 h -6.32 v 12.997 c 0,3.784 -1.113,5.653 -4.05,5.653 -3.427,0 -4.896,-1.913 -4.896,-6.587 V -23.012 H 0 Z"
   stroke-linecap="round"
   id="path47" />
</g><g
     transform="matrix(1.33,0,0,-1.33,321.36355,378.78859)"
     id="path887"
     clip-path="url(#CLIPPATH_11)">
<clipPath
   id="CLIPPATH_11">
	<path
   transform="translate(-320.48,-279.08)"
   id="path50"
   d="M 0,792 H 1378.359 V 0 H 0 Z"
   stroke-linecap="round" />
</clipPath>
<path
   style="opacity:1;fill:#000000;fill-rule:nonzero;stroke:none;stroke-width:1;stroke-linecap:butt;stroke-linejoin:miter;stroke-miterlimit:4;stroke-dasharray:none;stroke-dashoffset:0"
   transform="translate(0.18,3.29)"
   d="m 0,0 c -4.14,0 -5.564,-3.561 -5.564,-7.345 0,-3.604 1.647,-7.387 5.564,-7.387 4.184,0 5.43,3.649 5.43,7.432 C 5.43,-3.561 4.095,0 0,0 M 5.519,-15.935 H 5.43 c -1.469,-2.492 -4.05,-3.56 -6.988,-3.56 -6.943,0 -10.326,5.965 -10.326,12.329 0,6.187 3.427,11.929 10.193,11.929 2.714,0 5.385,-1.158 6.854,-3.428 H 5.119 5.208 v 11.573 h 6.32 v -31.78 H 5.519 Z"
   stroke-linecap="round"
   id="path53" />
</g><g
     transform="matrix(1.33,0,0,-1.33,355.95355,384.21859)"
     id="path891"
     clip-path="url(#CLIPPATH_12)">
<clipPath
   id="CLIPPATH_12">
	<path
   transform="translate(-346.42,-275)"
   id="path56"
   d="M 0,792 H 1378.359 V 0 H 0 Z"
   stroke-linecap="round" />
</clipPath>
<path
   style="opacity:1;fill:#000000;fill-rule:nonzero;stroke:none;stroke-width:1;stroke-linecap:butt;stroke-linejoin:miter;stroke-miterlimit:4;stroke-dasharray:none;stroke-dashoffset:0"
   transform="translate(5.12,2.47)"
   d="m 0,0 c -0.579,3.204 -1.958,4.896 -5.03,4.896 -4.006,0 -5.163,-3.117 -5.252,-4.896 z m -10.282,-4.006 c 0.178,-4.006 2.136,-5.831 5.653,-5.831 2.537,0 4.585,1.558 4.985,2.982 H 5.92 C 4.139,-12.285 0.356,-14.6 -4.852,-14.6 c -7.255,0 -11.75,4.985 -11.75,12.107 0,6.899 4.762,12.151 11.75,12.151 7.834,0 11.618,-6.588 11.172,-13.664 z"
   stroke-linecap="round"
   id="path59" />
</g><g
     transform="matrix(1.33,0,0,-1.33,389.40355,383.79859)"
     id="path895"
     clip-path="url(#CLIPPATH_13)">
<clipPath
   id="CLIPPATH_13">
	<path
   transform="translate(-371.5,-275.32)"
   id="path62"
   d="M 0,792 H 1378.359 V 0 H 0 Z"
   stroke-linecap="round" />
</clipPath>
<path
   style="opacity:1;fill:#000000;fill-rule:nonzero;stroke:none;stroke-width:1;stroke-linecap:butt;stroke-linejoin:miter;stroke-miterlimit:4;stroke-dasharray:none;stroke-dashoffset:0"
   transform="translate(-10.79,11.19)"
   d="m 0,0 h 6.009 v -3.205 h 0.134 c 1.602,2.582 4.361,3.828 7.032,3.828 6.721,0 8.412,-3.783 8.412,-9.48 v -14.155 h -6.32 v 12.997 c 0,3.784 -1.113,5.653 -4.05,5.653 -3.427,0 -4.896,-1.913 -4.896,-6.587 V -23.012 H 0 Z"
   stroke-linecap="round"
   id="path65" />
</g><g
     transform="matrix(1.33,0,0,-1.33,416.01355,379.79859)"
     id="path899"
     clip-path="url(#CLIPPATH_14)">
<clipPath
   id="CLIPPATH_14">
	<path
   transform="translate(-391.46,-278.32)"
   id="path68"
   d="M 0,792 H 1378.359 V 0 H 0 Z"
   stroke-linecap="round" />
</clipPath>
<path
   style="opacity:1;fill:#000000;fill-rule:nonzero;stroke:none;stroke-width:1;stroke-linecap:butt;stroke-linejoin:miter;stroke-miterlimit:4;stroke-dasharray:none;stroke-dashoffset:0"
   transform="translate(2.76,8.19)"
   d="M 0,0 H 4.629 V -4.229 H 0 v -11.394 c 0,-2.137 0.534,-2.67 2.67,-2.67 0.668,0 1.291,0.044 1.959,0.178 v -4.942 c -1.068,-0.177 -2.448,-0.222 -3.694,-0.222 -3.873,0 -7.256,0.89 -7.256,5.474 v 13.576 h -3.827 V 0 h 3.827 V 6.898 H 0 Z"
   stroke-linecap="round"
   id="path71" />
</g><g
     transform="matrix(1.33,0,0,-1.33,433.16355,378.36859)"
     id="path901"
     clip-path="url(#CLIPPATH_15)">
<clipPath
   id="CLIPPATH_15">
	<path
   transform="translate(-404.32,-279.39)"
   id="path74"
   d="M 0,792 H 1378.359 V 0 H 0 Z"
   stroke-linecap="round" />
</clipPath>
<path
   style="opacity:1;fill:#000000;fill-rule:nonzero;stroke:none;stroke-width:1;stroke-linecap:butt;stroke-linejoin:miter;stroke-miterlimit:4;stroke-dasharray:none;stroke-dashoffset:0"
   transform="translate(-404.32,-279.39)"
   d="m 401.164,295.278 h 6.32 v -31.78 h -6.32 z"
   stroke-linecap="round"
   id="path77" />
</g><g
     transform="matrix(1.33,0,0,-1.33,455.03355,389.61859)"
     id="path905"
     clip-path="url(#CLIPPATH_16)">
<clipPath
   id="CLIPPATH_16">
	<path
   transform="translate(-420.73,-270.95)"
   id="path80"
   d="M 0,792 H 1378.359 V 0 H 0 Z"
   stroke-linecap="round" />
</clipPath>
<path
   style="opacity:1;fill:#000000;fill-rule:nonzero;stroke:none;stroke-width:1;stroke-linecap:butt;stroke-linejoin:miter;stroke-miterlimit:4;stroke-dasharray:none;stroke-dashoffset:0"
   transform="translate(2.2,-10.35)"
   d="m 0,0 c -1.38,-3.695 -3.561,-5.208 -7.923,-5.208 -1.29,0 -2.581,0.089 -3.872,0.223 v 5.208 c 1.202,-0.09 2.448,-0.268 3.694,-0.223 2.181,0.223 2.893,2.492 2.181,4.316 l -8.101,21.588 h 6.766 l 5.208,-15.757 h 0.089 l 5.029,15.757 h 6.543 z"
   stroke-linecap="round"
   id="path83" />
</g><g
     transform="matrix(1.33,0,0,-1.33,502.68355,384.21859)"
     id="path909"
     clip-path="url(#CLIPPATH_17)">
<clipPath
   id="CLIPPATH_17">
	<path
   transform="translate(-456.47,-275)"
   id="path86"
   d="M 0,792 H 1378.359 V 0 H 0 Z"
   stroke-linecap="round" />
</clipPath>
<path
   style="opacity:1;fill:#000000;fill-rule:nonzero;stroke:none;stroke-width:1;stroke-linecap:butt;stroke-linejoin:miter;stroke-miterlimit:4;stroke-dasharray:none;stroke-dashoffset:0"
   transform="translate(-0.02,-7.37)"
   d="m 0,0 c 4.317,0 5.608,3.694 5.608,7.344 0,3.694 -1.291,7.388 -5.608,7.388 -4.273,0 -5.564,-3.694 -5.564,-7.388 C -5.564,3.694 -4.273,0 0,0 m 0,19.495 c 7.255,0 11.929,-4.807 11.929,-12.151 0,-7.3 -4.674,-12.107 -11.929,-12.107 -7.211,0 -11.884,4.807 -11.884,12.107 0,7.344 4.673,12.151 11.884,12.151"
   stroke-linecap="round"
   id="path89" />
</g><g
     transform="matrix(1.33,0,0,-1.33,531.52355,383.79859)"
     id="path913"
     clip-path="url(#CLIPPATH_18)">
<clipPath
   id="CLIPPATH_18">
	<path
   transform="translate(-478.1,-275.32)"
   id="path92"
   d="M 0,792 H 1378.359 V 0 H 0 Z"
   stroke-linecap="round" />
</clipPath>
<path
   style="opacity:1;fill:#000000;fill-rule:nonzero;stroke:none;stroke-width:1;stroke-linecap:butt;stroke-linejoin:miter;stroke-miterlimit:4;stroke-dasharray:none;stroke-dashoffset:0"
   transform="translate(-7.41,11.19)"
   d="m 0,0 h 6.009 v -4.273 h 0.089 c 1.157,2.893 4.273,4.896 7.344,4.896 0.445,0 0.979,-0.089 1.38,-0.223 v -5.875 c -0.579,0.133 -1.513,0.223 -2.27,0.223 -4.629,0 -6.231,-3.338 -6.231,-7.389 V -23.012 H 0 Z"
   stroke-linecap="round"
   id="path95" />
</g><g
     transform="matrix(1.33,0,0,-1.33,557.81355,389.61859)"
     id="path917"
     clip-path="url(#CLIPPATH_19)">
<clipPath
   id="CLIPPATH_19">
	<path
   transform="translate(-497.81,-270.95)"
   id="path98"
   d="M 0,792 H 1378.359 V 0 H 0 Z"
   stroke-linecap="round" />
</clipPath>
<path
   style="opacity:1;fill:#000000;fill-rule:nonzero;stroke:none;stroke-width:1;stroke-linecap:butt;stroke-linejoin:miter;stroke-miterlimit:4;stroke-dasharray:none;stroke-dashoffset:0"
   transform="translate(5.41,4.34)"
   d="m 0,0 c 0,3.739 -1.291,7.077 -5.386,7.077 -3.56,0 -5.118,-3.116 -5.118,-6.543 0,-3.294 1.246,-6.899 5.118,-6.899 C -1.78,-6.365 0,-3.293 0,0 m 6.009,-10.326 c 0,-3.783 -1.336,-10.193 -11.929,-10.193 -4.54,0 -9.836,2.136 -10.148,7.388 h 6.276 c 0.579,-2.358 2.492,-3.16 4.718,-3.16 3.516,0 5.118,2.404 5.074,5.697 v 3.028 h -0.089 c -1.38,-2.405 -4.14,-3.561 -6.899,-3.561 -6.899,0 -9.837,5.252 -9.837,11.572 0,5.965 3.428,11.395 9.882,11.395 3.026,0 5.34,-1.024 6.854,-3.694 H 0 v 3.071 h 6.009 z"
   stroke-linecap="round"
   id="path101" />
</g><g
     transform="matrix(1.33,0,0,-1.33,591.07355,384.21859)"
     id="path921"
     clip-path="url(#CLIPPATH_20)">
<clipPath
   id="CLIPPATH_20">
	<path
   transform="translate(-522.76,-275)"
   id="path104"
   d="M 0,792 H 1378.359 V 0 H 0 Z"
   stroke-linecap="round" />
</clipPath>
<path
   style="opacity:1;fill:#000000;fill-rule:nonzero;stroke:none;stroke-width:1;stroke-linecap:butt;stroke-linejoin:miter;stroke-miterlimit:4;stroke-dasharray:none;stroke-dashoffset:0"
   transform="translate(4.1,-0.24)"
   d="m 0,0 c -1.068,-0.936 -3.294,-0.98 -5.252,-1.336 -1.959,-0.4 -3.739,-1.068 -3.739,-3.383 0,-2.359 1.825,-2.937 3.872,-2.937 4.941,0 5.119,3.916 5.119,5.297 z m -14.599,4.673 c 0.356,5.92 5.652,7.7 10.815,7.7 C 0.801,12.373 6.32,11.35 6.32,5.83 V -6.143 c 0,-2.091 0.223,-4.184 0.802,-5.119 h -6.41 c -0.223,0.712 -0.4,1.469 -0.445,2.226 -2.003,-2.093 -4.941,-2.849 -7.745,-2.849 -4.362,0 -7.834,2.181 -7.834,6.899 0,5.208 3.917,6.455 7.834,6.988 C -3.605,2.581 0,2.447 0,5.029 c 0,2.715 -1.87,3.116 -4.095,3.116 -2.404,0 -3.962,-0.979 -4.184,-3.472 z"
   stroke-linecap="round"
   id="path107" />
</g><g
     transform="matrix(1.33,0,0,-1.33,624.69355,383.79859)"
     id="path925"
     clip-path="url(#CLIPPATH_21)">
<clipPath
   id="CLIPPATH_21">
	<path
   transform="translate(-547.97,-275.32)"
   id="path110"
   d="M 0,792 H 1378.359 V 0 H 0 Z"
   stroke-linecap="round" />
</clipPath>
<path
   style="opacity:1;fill:#000000;fill-rule:nonzero;stroke:none;stroke-width:1;stroke-linecap:butt;stroke-linejoin:miter;stroke-miterlimit:4;stroke-dasharray:none;stroke-dashoffset:0"
   transform="translate(-10.79,11.19)"
   d="m 0,0 h 6.009 v -3.205 h 0.134 c 1.602,2.582 4.361,3.828 7.032,3.828 6.721,0 8.412,-3.783 8.412,-9.48 v -14.155 h -6.32 v 12.997 c 0,3.784 -1.113,5.653 -4.05,5.653 -3.427,0 -4.896,-1.913 -4.896,-6.587 V -23.012 H 0 Z"
   stroke-linecap="round"
   id="path113" />
</g><g
     transform="matrix(1.33,0,0,-1.33,647.57355,378.36859)"
     id="path927"
     clip-path="url(#CLIPPATH_22)">
<clipPath
   id="CLIPPATH_22">
	<path
   transform="translate(-565.13,-279.39)"
   id="path116"
   d="M 0,792 H 1378.359 V 0 H 0 Z"
   stroke-linecap="round" />
</clipPath>
<path
   style="opacity:1;fill:#000000;fill-rule:nonzero;stroke:none;stroke-width:1;stroke-linecap:butt;stroke-linejoin:miter;stroke-miterlimit:4;stroke-dasharray:none;stroke-dashoffset:0"
   transform="translate(-565.13,-279.39)"
   d="m 561.966,286.51 h 6.32 v -23.012 h -6.32 z m 6.321,3.56 h -6.32 v 5.208 h 6.32 z"
   stroke-linecap="round"
   id="path119" />
</g><g
     transform="matrix(1.33,0,0,-1.33,669.43355,384.21859)"
     id="path931"
     clip-path="url(#CLIPPATH_23)">
<clipPath
   id="CLIPPATH_23">
	<path
   transform="translate(-581.53,-275)"
   id="path122"
   d="M 0,792 H 1378.359 V 0 H 0 Z"
   stroke-linecap="round" />
</clipPath>
<path
   style="opacity:1;fill:#000000;fill-rule:nonzero;stroke:none;stroke-width:1;stroke-linecap:butt;stroke-linejoin:miter;stroke-miterlimit:4;stroke-dasharray:none;stroke-dashoffset:0"
   transform="translate(-10.57,-6.74)"
   d="M 0,0 11.973,13.486 H 0.891 v 4.763 H 20.296 V 13.486 L 8.324,0 H 21.142 V -4.763 H 0 Z"
   stroke-linecap="round"
   id="path125" />
</g><g
     transform="matrix(1.33,0,0,-1.33,700.67355,384.21859)"
     id="path935"
     clip-path="url(#CLIPPATH_24)">
<clipPath
   id="CLIPPATH_24">
	<path
   transform="translate(-604.96,-275)"
   id="path128"
   d="M 0,792 H 1378.359 V 0 H 0 Z"
   stroke-linecap="round" />
</clipPath>
<path
   style="opacity:1;fill:#000000;fill-rule:nonzero;stroke:none;stroke-width:1;stroke-linecap:butt;stroke-linejoin:miter;stroke-miterlimit:4;stroke-dasharray:none;stroke-dashoffset:0"
   transform="translate(5.12,2.47)"
   d="m 0,0 c -0.578,3.204 -1.958,4.896 -5.029,4.896 -4.006,0 -5.163,-3.117 -5.252,-4.896 z m -10.281,-4.006 c 0.177,-4.006 2.136,-5.831 5.652,-5.831 2.537,0 4.585,1.558 4.985,2.982 H 5.92 C 4.14,-12.285 0.356,-14.6 -4.852,-14.6 c -7.254,0 -11.75,4.985 -11.75,12.107 0,6.899 4.763,12.151 11.75,12.151 7.834,0 11.618,-6.588 11.173,-13.664 z"
   stroke-linecap="round"
   id="path131" />
</g><g
     transform="matrix(1.33,0,0,-1.33,734.03355,378.78859)"
     id="path939"
     clip-path="url(#CLIPPATH_25)">
<clipPath
   id="CLIPPATH_25">
	<path
   transform="translate(-629.97,-279.08)"
   id="path134"
   d="M 0,792 H 1378.359 V 0 H 0 Z"
   stroke-linecap="round" />
</clipPath>
<path
   style="opacity:1;fill:#000000;fill-rule:nonzero;stroke:none;stroke-width:1;stroke-linecap:butt;stroke-linejoin:miter;stroke-miterlimit:4;stroke-dasharray:none;stroke-dashoffset:0"
   transform="translate(0.18,3.29)"
   d="m 0,0 c -4.14,0 -5.563,-3.561 -5.563,-7.345 0,-3.604 1.646,-7.387 5.563,-7.387 4.184,0 5.43,3.649 5.43,7.432 C 5.43,-3.561 4.095,0 0,0 M 5.52,-15.935 H 5.43 c -1.469,-2.492 -4.05,-3.56 -6.988,-3.56 -6.944,0 -10.327,5.965 -10.327,12.329 0,6.187 3.428,11.929 10.194,11.929 2.714,0 5.385,-1.158 6.854,-3.428 H 5.118 5.207 v 11.573 h 6.321 v -31.78 H 5.52 Z"
   stroke-linecap="round"
   id="path137" />
</g><g
     transform="matrix(1.33,0,0,-1.33,785.03355,378.36859)"
     id="path943"
     clip-path="url(#CLIPPATH_26)">
<clipPath
   id="CLIPPATH_26">
	<path
   transform="translate(-668.23,-279.39)"
   id="path140"
   d="M 0,792 H 1378.359 V 0 H 0 Z"
   stroke-linecap="round" />
</clipPath>
<path
   style="opacity:1;fill:#000000;fill-rule:nonzero;stroke:none;stroke-width:1;stroke-linecap:butt;stroke-linejoin:miter;stroke-miterlimit:4;stroke-dasharray:none;stroke-dashoffset:0"
   transform="translate(-3.49,10.01)"
   d="M 0,0 H -9.524 V 5.876 H 16.514 V 0 H 6.988 V -25.904 H 0 Z"
   stroke-linecap="round"
   id="path143" />
</g><g
     transform="matrix(1.33,0,0,-1.33,822.15355,378.36859)"
     id="path947"
     clip-path="url(#CLIPPATH_27)">
<clipPath
   id="CLIPPATH_27">
	<path
   transform="translate(-696.07,-279.39)"
   id="path146"
   d="M 0,792 H 1378.359 V 0 H 0 Z"
   stroke-linecap="round" />
</clipPath>
<path
   style="opacity:1;fill:#000000;fill-rule:nonzero;stroke:none;stroke-width:1;stroke-linecap:butt;stroke-linejoin:miter;stroke-miterlimit:4;stroke-dasharray:none;stroke-dashoffset:0"
   transform="translate(-12.06,15.89)"
   d="M 0,0 H 23.769 V -5.876 H 6.988 v -6.81 h 15.401 v -5.43 H 6.988 v -7.789 H 24.124 V -31.78 H 0 Z"
   stroke-linecap="round"
   id="path149" />
</g><g
     transform="matrix(1.33,0,0,-1.33,860.90355,378.36859)"
     id="path951"
     clip-path="url(#CLIPPATH_28)">
<clipPath
   id="CLIPPATH_28">
	<path
   transform="translate(-725.13,-279.39)"
   id="path152"
   d="M 0,792 H 1378.359 V 0 H 0 Z"
   stroke-linecap="round" />
</clipPath>
<path
   style="opacity:1;fill:#000000;fill-rule:nonzero;stroke:none;stroke-width:1;stroke-linecap:butt;stroke-linejoin:miter;stroke-miterlimit:4;stroke-dasharray:none;stroke-dashoffset:0"
   transform="translate(-7.08,-10.02)"
   d="m 0,0 h 6.231 c 4.05,0 7.923,2.492 7.923,9.525 0,6.411 -2.225,10.504 -9.17,10.504 H 0 Z M -6.988,25.905 H 6.721 c 8.234,0 14.421,-5.163 14.421,-15.712 0,-9.214 -4.718,-16.068 -14.421,-16.068 H -6.988 Z"
   stroke-linecap="round"
   id="path155" />
</g><g
     transform="matrix(1.33,0,0,-1.33,913.18355,384.21859)"
     id="path955"
     clip-path="url(#CLIPPATH_29)">
<clipPath
   id="CLIPPATH_29">
	<path
   transform="translate(-764.34,-275)"
   id="path158"
   d="M 0,792 H 1378.359 V 0 H 0 Z"
   stroke-linecap="round" />
</clipPath>
<path
   style="opacity:1;fill:#000000;fill-rule:nonzero;stroke:none;stroke-width:1;stroke-linecap:butt;stroke-linejoin:miter;stroke-miterlimit:4;stroke-dasharray:none;stroke-dashoffset:0"
   transform="translate(5.12,2.47)"
   d="m 0,0 c -0.578,3.204 -1.958,4.896 -5.029,4.896 -4.006,0 -5.163,-3.117 -5.252,-4.896 z m -10.281,-4.006 c 0.177,-4.006 2.136,-5.831 5.652,-5.831 2.537,0 4.585,1.558 4.985,2.982 H 5.92 C 4.14,-12.285 0.356,-14.6 -4.852,-14.6 c -7.254,0 -11.75,4.985 -11.75,12.107 0,6.899 4.763,12.151 11.75,12.151 7.834,0 11.618,-6.588 11.173,-13.664 z"
   stroke-linecap="round"
   id="path161" />
</g><g
     transform="matrix(1.33,0,0,-1.33,943.27355,384.21859)"
     id="path959"
     clip-path="url(#CLIPPATH_30)">
<clipPath
   id="CLIPPATH_30">
	<path
   transform="translate(-786.91,-275)"
   id="path164"
   d="M 0,792 H 1378.359 V 0 H 0 Z"
   stroke-linecap="round" />
</clipPath>
<path
   style="opacity:1;fill:#000000;fill-rule:nonzero;stroke:none;stroke-width:1;stroke-linecap:butt;stroke-linejoin:miter;stroke-miterlimit:4;stroke-dasharray:none;stroke-dashoffset:0"
   transform="translate(3.56,-11.51)"
   d="m 0,0 h -7.033 l -7.878,23.012 h 6.632 L -3.428,7.3 h 0.089 l 4.852,15.712 h 6.276 z"
   stroke-linecap="round"
   id="path167" />
</g><g
     transform="matrix(1.33,0,0,-1.33,973.35355,384.21859)"
     id="path963"
     clip-path="url(#CLIPPATH_31)">
<clipPath
   id="CLIPPATH_31">
	<path
   transform="translate(-809.47,-275)"
   id="path170"
   d="M 0,792 H 1378.359 V 0 H 0 Z"
   stroke-linecap="round" />
</clipPath>
<path
   style="opacity:1;fill:#000000;fill-rule:nonzero;stroke:none;stroke-width:1;stroke-linecap:butt;stroke-linejoin:miter;stroke-miterlimit:4;stroke-dasharray:none;stroke-dashoffset:0"
   transform="translate(5.12,2.47)"
   d="m 0,0 c -0.578,3.204 -1.958,4.896 -5.029,4.896 -4.006,0 -5.163,-3.117 -5.252,-4.896 z m -10.281,-4.006 c 0.177,-4.006 2.136,-5.831 5.652,-5.831 2.537,0 4.585,1.558 4.985,2.982 H 5.92 C 4.14,-12.285 0.356,-14.6 -4.852,-14.6 c -7.254,0 -11.75,4.985 -11.75,12.107 0,6.899 4.763,12.151 11.75,12.151 7.834,0 11.618,-6.588 11.172,-13.664 z"
   stroke-linecap="round"
   id="path173" />
</g><g
     transform="matrix(1.33,0,0,-1.33,1006.8035,383.79859)"
     id="path967"
     clip-path="url(#CLIPPATH_32)">
<clipPath
   id="CLIPPATH_32">
	<path
   transform="translate(-834.55,-275.32)"
   id="path176"
   d="M 0,792 H 1378.359 V 0 H 0 Z"
   stroke-linecap="round" />
</clipPath>
<path
   style="opacity:1;fill:#000000;fill-rule:nonzero;stroke:none;stroke-width:1;stroke-linecap:butt;stroke-linejoin:miter;stroke-miterlimit:4;stroke-dasharray:none;stroke-dashoffset:0"
   transform="translate(-10.79,11.19)"
   d="m 0,0 h 6.009 v -3.205 h 0.134 c 1.602,2.582 4.362,3.828 7.032,3.828 6.721,0 8.413,-3.783 8.413,-9.48 v -14.155 h -6.32 v 12.997 c 0,3.784 -1.114,5.653 -4.051,5.653 -3.428,0 -4.897,-1.913 -4.897,-6.587 V -23.012 H 0 Z"
   stroke-linecap="round"
   id="path179" />
</g><g
     transform="matrix(1.33,0,0,-1.33,1033.4136,379.79859)"
     id="path971"
     clip-path="url(#CLIPPATH_33)">
<clipPath
   id="CLIPPATH_33">
	<path
   transform="translate(-854.51,-278.32)"
   id="path182"
   d="M 0,792 H 1378.359 V 0 H 0 Z"
   stroke-linecap="round" />
</clipPath>
<path
   style="opacity:1;fill:#000000;fill-rule:nonzero;stroke:none;stroke-width:1;stroke-linecap:butt;stroke-linejoin:miter;stroke-miterlimit:4;stroke-dasharray:none;stroke-dashoffset:0"
   transform="translate(2.76,8.19)"
   d="M 0,0 H 4.629 V -4.229 H 0 v -11.394 c 0,-2.137 0.534,-2.67 2.671,-2.67 0.668,0 1.291,0.044 1.958,0.178 v -4.942 c -1.067,-0.177 -2.447,-0.222 -3.694,-0.222 -3.873,0 -7.255,0.89 -7.255,5.474 v 13.576 h -3.828 V 0 H -6.32 V 6.898 H 0 Z"
   stroke-linecap="round"
   id="path185" />
</g><g
     transform="matrix(1.33,0,0,1.33,801.07355,256.57859)"
     id="text991">
		<text
   xml:space="preserve"
   font-family="Helvetica"
   font-size="146.905px"
   font-style="normal"
   font-weight="normal"
   style="white-space:pre;opacity:1;fill:#000000;fill-rule:nonzero;stroke:none;stroke-width:1;stroke-linecap:butt;stroke-linejoin:miter;stroke-miterlimit:4;stroke-dasharray:none;stroke-dashoffset:0"
   id="text214"><tspan
     x="-599.96002"
     y="46.150002"
     id="tspan212">MasarykUniversity</tspan></text>
</g></g>
</svg>
