<?xml version="1.0" encoding="UTF-8" standalone="no"?>
<svg
   xmlns:dc="http://purl.org/dc/elements/1.1/"
   xmlns:cc="http://creativecommons.org/ns#"
   xmlns:rdf="http://www.w3.org/1999/02/22-rdf-syntax-ns#"
   xmlns:svg="http://www.w3.org/2000/svg"
   xmlns="http://www.w3.org/2000/svg"
   xmlns:sodipodi="http://sodipodi.sourceforge.net/DTD/sodipodi-0.dtd"
   xmlns:inkscape="http://www.inkscape.org/namespaces/inkscape"
   width="204.43359pt"
   height="69.042969pt"
   viewBox="0 0 204.43359 69.042969"
   version="1.2"
   id="svg66"
   sodipodi:docname="Logo_vertical_vector_final.svg"
   inkscape:version="1.0.2 (e86c870879, 2021-01-15, custom)">
  <metadata
     id="metadata72">
    <rdf:RDF>
      <cc:Work
         rdf:about="">
        <dc:format>image/svg+xml</dc:format>
        <dc:type
           rdf:resource="http://purl.org/dc/dcmitype/StillImage" />
        <dc:title></dc:title>
      </cc:Work>
    </rdf:RDF>
  </metadata>
  <defs
     id="defs70" />
  <sodipodi:namedview
     pagecolor="#ffffff"
     bordercolor="#666666"
     borderopacity="1"
     objecttolerance="10"
     gridtolerance="10"
     guidetolerance="10"
     inkscape:pageopacity="0"
     inkscape:pageshadow="2"
     inkscape:window-width="2400"
     inkscape:window-height="1271"
     id="namedview68"
     showgrid="false"
     fit-margin-top="0"
     fit-margin-left="0"
     fit-margin-right="0"
     fit-margin-bottom="0"
     inkscape:zoom="6.9814847"
     inkscape:cx="136.28906"
     inkscape:cy="45.031249"
     inkscape:window-x="-9"
     inkscape:window-y="-9"
     inkscape:window-maximized="1"
     inkscape:current-layer="svg66" />
  <g
     id="surface48969"
     transform="translate(-17.886719,-86.226563)">
    <path
       style="fill:#428aff;fill-opacity:1;fill-rule:nonzero;stroke:none"
       d="m 91.261719,101.61328 v 29.21484 c 0,1.30079 0.332031,2.50391 1,3.60547 0.667969,1.10157 1.574219,1.97657 2.710937,2.62891 1.140625,0.64844 2.359375,0.97656 3.660157,0.97656 1.265625,0 2.464847,-0.32812 3.605467,-0.97656 1.13672,-0.65234 2.05078,-1.52734 2.73438,-2.62891 0.6875,-1.10156 1.03125,-2.30468 1.03125,-3.60547 v -29.21484 h 1.94922 v 29.21484 c 0,1.77344 -0.40625,3.34375 -1.21875,4.71485 -0.8125,1.375 -1.9336,2.4414 -3.35938,3.19922 -1.42578,0.75781 -3.00781,1.14062 -4.742187,1.14062 -1.734375,0 -3.316407,-0.38281 -4.742188,-1.14062 -1.429687,-0.75782 -2.550781,-1.82422 -3.363281,-3.19922 -0.8125,-1.3711 -1.21875,-2.94141 -1.21875,-4.71485 v -29.21484 z m 0,0"
       id="path47" />
    <path
       style="fill:#428aff;fill-opacity:1;fill-rule:nonzero;stroke:none"
       d="m 146.60156,139.55859 h -1.94922 v -37.94531 h 1.94922 z m -15.8789,-37.94531 13.71093,37.94531 h -2.11328 l -13.60547,-37.94531 z m -2.22657,37.94531 h -1.94921 v -37.94531 h 1.94921 z m 0,0"
       id="path49" />
    <path
       style="fill:#428aff;fill-opacity:1;fill-rule:nonzero;stroke:none"
       d="m 173.53906,137.71484 v -34.25781 h -7.10156 v -1.84375 h 16.15234 v 1.84375 h -7.10156 v 34.25781 h 7.10156 v 1.84375 H 166.4375 v -1.84375 z m 0,0"
       id="path51" />
    <path
       style="fill:#428aff;fill-opacity:1;fill-rule:nonzero;stroke:none"
       d="m 204.21875,101.61328 h 18.10156 v 1.84375 h -16.15234 v 15.28516 h 15.5 v 1.83984 h -15.5 v 17.12891 h 16.15234 v 1.84765 h -18.10156 z m 0,0"
       id="path53" />
    <path
       style="fill:#075ce6;fill-opacity:1;fill-rule:nonzero;stroke:none"
       d="M 44.171875,155.26953 C 41.9375,132.25391 39.703125,109.24219 37.46875,86.226563 H 51.222656 C 48.984375,109.24219 46.75,132.25391 44.515625,155.26953 Z m 0,0"
       id="path55" />
    <path
       style="fill:#17428c;fill-opacity:1;fill-rule:nonzero;stroke:none"
       d="m 17.886719,86.226563 h 4.710937 c 0,23.015627 0,46.027347 0,69.042967 h -4.707031 c -0.0039,-23.01562 -0.0039,-46.02734 -0.0039,-69.042967"
       id="path57" />
    <path
       style="fill:#7aabfd;fill-opacity:1;fill-rule:nonzero;stroke:none"
       d="m 70.652344,86.226563 c -0.0078,23.015627 -0.01563,46.027347 -0.01953,69.042967 h -4.4375 c 0,-23.01562 0,-46.02734 -0.0039,-69.042967 z m 0,0"
       id="path59" />
    <path
       style="fill:#3063ba;fill-opacity:1;fill-rule:nonzero;stroke:none"
       d="m 40.460938,155.26953 h -6.980469 c 0,-23.01562 0,-46.02734 0,-69.042967 h 0.273437 c 2.238282,23.015627 4.472657,46.027347 6.707032,69.042967"
       id="path61" />
    <path
       style="fill:#4f91fd;fill-opacity:1;fill-rule:nonzero;stroke:none"
       d="m 55.167969,86.226563 c 0,23.015627 0,46.027347 0,69.042967 h -6.9375 c 2.234375,-23.01562 4.46875,-46.02734 6.703125,-69.042967 z m 0,0"
       id="path63" />
  </g>
</svg>
